<?xml version="1.0" standalone="no"?>
<!DOCTYPE svg PUBLIC "-//W3C//DTD SVG 1.1//EN" "http://www.w3.org/Graphics/SVG/1.1/DTD/svg11.dtd" >
<!--
2013-9-30: Created.
-->
<svg>
<metadata>
Created by iconfont
</metadata>
<defs>

<font id="iconfont" horiz-adv-x="1024" >
  <font-face
    font-family="iconfont"
    font-weight="500"
    font-stretch="normal"
    units-per-em="1024"
    ascent="896"
    descent="-128"
  />
    <missing-glyph />
    
    <glyph glyph-name="tongxunlu" unicode="&#59061;" d="M244.288-58.24l594.112 0L838.4 826.24 244.288 826.24 244.288-58.24zM314.944 242.752C322.496 264.64 347.52 267.776 368.384 276.608c22.912 9.6 48.32 20.864 71.232 30.272 6.528 1.728 13.056 3.584 19.584 5.376 7.808 5.312 15.424 23.168 19.648 32l9.28 2.24C485.952 358.272 478.656 359.104 475.712 367.36 474.496 379.904 473.344 392.384 472.128 404.8 472.192 404.224 463.552 406.4 462.528 407.04c-12.096 7.616-12.352 38.4-13.504 51.2C448.448 464.128 456.576 468.864 454.336 479.616c-13.248 62.784 5.76 92.16 35.776 101.952C510.848 590.08 549.824 605.696 586.112 583.36l9.024-8.384 14.592-2.496C617.024 568.32 621.632 554.304 621.632 554.304c3.904-15.488 4.224-16.768 3.904-32.64C625.344 515.584 621.888 487.232 622.784 478.656c0.832-7.168 2.56-7.744 5.376-13.632 4.928-10.304 3.264-24.448 1.344-34.816-1.024-5.632-3.2-13.696-6.528-18.304-3.648-5.12-10.944-5.12-14.208-11.136C604.224 392.256 606.784 380.16 603.968 370.944 600.576 360.512 592.064 359.744 591.424 346.048c4.16-0.64 8.32-1.216 12.48-1.792 4.096-8.832 11.776-26.688 19.584-32 6.592-1.792 13.056-3.648 19.648-5.376 22.784-9.344 48.256-20.608 71.168-30.272 20.864-8.896 45.888-12.032 53.44-33.856 0-14.848 1.408-49.984 1.024-69.44L313.92 173.312C313.472 192.768 314.944 227.904 314.944 242.752zM64 773.76l0-779.52c0-28.992 23.488-52.48 52.48-52.48l64.832 0L181.312 826.24 116.48 826.24C87.488 826.24 64 802.752 64 773.76zM879.68 826.24l80.32 0 0-202.624-80.32 0 0 202.624ZM879.68 570.304l80.32 0 0-202.624-80.32 0 0 202.624ZM879.68 314.432l80.32 0 0-202.624-80.32 0 0 202.624Z"  horiz-adv-x="1024" />

    
    <glyph glyph-name="icon" unicode="&#58889;" d="M536.493857 186.470181l-69.832462 0c-3.470031 0-6.272867-2.809999-6.272867-6.251378l0-9.221012c0-3.448542 2.802836-6.281053 6.272867-6.281053l69.832462 0c3.467985 0 6.272867 2.832512 6.272867 6.281053l0 9.221012C542.767747 183.660182 539.961842 186.470181 536.493857 186.470181zM511.705288 831.979918c-247.272733 0-447.725114-200.453405-447.725114-447.725114 0-247.270686 200.452381-447.725114 447.725114-447.725114s447.725114 200.453405 447.725114 447.725114C959.430402 631.526513 758.978021 831.979918 511.705288 831.979918zM668.884097 156.105616c0-10.796904-8.859785-19.617803-19.620873-19.617803L351.087147 136.487813c-10.787694 0-19.617803 8.820899-19.617803 19.617803L331.469344 612.40399c0 10.774391 8.830109 19.618826 19.617803 19.618826l298.176077 0c10.790764 0 19.620873-8.844435 19.620873-19.618826l0-107.74698-43.00035 30.42187 0 54.759161L376.789529 589.838042l0-355.209024-0.710175-0.290619 0.710175 0 0-19.116383 249.094218 0 0 19.116383 43.00035 0L668.884097 156.105616zM554.151006 392.647961c-13.533224 9.577123-32.279171 6.360871-41.834804-7.150864-8.015557-11.355629-7.086395-26.333762 1.436722-36.550451l-49.41341-69.801762c-3.400446 2.432399-6.813173 4.820796-10.196223 7.216355 0.583285 41.247426 1.162476 82.494852 1.75804 123.712603 34.386158 13.839193 64.328098 39.061644 90.072435 75.342965l25.456788-18.006096 0.64059-0.471744 0.683569-0.464581 0.668219-0.464581 0.668219-0.50142 0.668219-0.464581 0.680499-0.464581 0.668219-0.493234 0.668219-0.471744 0.668219-0.464581 0.652869-0.471744 0.697895-0.464581 0.63752-0.465604 0.697895-0.50142 0.652869-0.464581 0.697895-0.500397 0.63752-0.464581 0.668219-0.464581 0.683569-0.471744 0.668219-0.457418 0.668219-0.471744 0.668219-0.493234 0.668219-0.471744 0.683569-0.464581 0.668219-0.493234 0.668219-0.471744 0.668219-0.465604 12.646018-8.959046 0.668219-0.471744 0.668219-0.464581 0.683569-0.464581 0.668219-0.50142 0.668219-0.464581 0.668219-0.471744 0.668219-0.465604 0.683569-0.464581 0.668219-0.493234 0.63752-0.464581 0.713244-0.471744 0.63752-0.494257 0.697895-0.471744 0.63752-0.465604 0.697895-0.464581 0.652869-0.471744 0.665149-0.493234 0.671289-0.471744 0.665149-0.464581 0.671289-0.464581 0.683569-0.494257 0.668219-0.471744 0.665149-0.464581 0.088004-0.057305 27.387767-19.385513c-25.629727-36.310997-39.46892-72.977082-41.081651-109.998253-38.670741-14.244422-77.383438-28.541033-116.097158-42.822294-3.382027 2.39556-6.765077 4.820796-10.177803 7.210215l49.38578 69.831438c12.44545-4.617158 26.892487-0.530073 34.923394 10.796904C570.850339 364.360707 567.670927 383.100514 554.151006 392.647961zM679.818123 262.974599 536.291243 262.974599l84.121909 31.060413 59.405995 0L679.819147 262.974599zM666.834414 417.717939l-131.86426 93.299943 25.134447 35.496445 131.837654-93.26208L666.834414 417.717939z"  horiz-adv-x="1024" />

    
    <glyph glyph-name="wodeshijuan" unicode="&#58936;" d="M923.2128 241.792c-0.512 1.2864-0.9728 2.592-1.472 3.8848C922.1696 244.352 922.624 243.0464 923.2128 241.792zM203.7312 139.7312 203.7312 493.8688 349.8688 493.8688 349.8688 628.2688 691.3472 628.2688 691.3472 490.9504 767.0784 490.9504 767.0784 704 702.4 704 691.3472 704 349.8688 704 278.016 704 250.6688 704 128 582.4 128 556.8 128 493.8688 128 139.7312 128 64 203.7312 64 504.5312 64 504.5312 139.7312ZM896 91.4112c0-15.1296-12.9792-27.4112-29.0304-27.4112L576.9984 64c-16.0576 0-29.0304 12.2816-29.0304 27.4112 0 54.8288 56.0576 106.048 113.3504 126.2528-33.1008 19.3472-55.3664 53.6768-55.3664 93.152l0 27.4176c0 60.5888 51.9872 109.7344 116.032 109.7344s116.0384-49.1456 116.0384-109.7344l0-27.4176c0-39.4752-22.2656-73.7984-55.3664-93.152C839.9424 197.4656 896 146.2464 896 91.4112L896 91.4112zM896 91.4112"  horiz-adv-x="1024" />

    
    <glyph glyph-name="tongjitubiao" unicode="&#59002;" d="M121.57287 106.775094 121.57287 718.656943 64.140833 718.656943l0-669.303652 28.716019 0 0-0.011256 867.002316 0 0 57.432037L121.57287 106.774071zM679.325913 495.545492 561.148373 495.545492l0-330.234213L679.325913 165.311279 679.325913 495.545492zM844.995093 661.214672 726.817554 661.214672l0-495.903393 118.17754 0L844.995093 661.214672zM513.656733 603.782635 395.479193 603.782635l0-438.471356 118.17754 0L513.656733 603.782635zM345.778234 390.621814 227.600695 390.621814l0-225.310535 118.17754 0L345.778234 390.621814z"  horiz-adv-x="1024" />

    
    <glyph glyph-name="tongjituyang" unicode="&#58882;" d="M475.427 826.28C211.876 826.28-1.711 612.658-1.711 349.141s213.587-477.139 477.139-477.139c263.516 0 477.139 213.622 477.139 477.139L475.427 349.141 475.427 826.28zM872.493 275.735c-34.624-187.708-199.501-330.327-397.066-330.327-222.62 0-403.733 181.113-403.733 403.733 0 197.565 142.619 362.442 330.327 397.047l0-397.047 0-73.406 73.406 0L872.493 275.735zM531.839 856.449l0-451.447 451.447 0C983.286 654.33 781.166 856.449 531.839 856.449zM601.293 780.671c155.082-28.587 277.61-151.148 306.232-306.214L601.293 474.457 601.293 780.671zM0 349.141c0-263.613 213.108-477.138 476.208-477.138 263.098 0 476.206 213.525 476.206 477.138L476.207 349.141 476.207 826.28C213.107 826.28 0 612.754 0 349.141zM982.567 405.228c0 249.214-201.467 451.075-450.195 451.075l0-451.075L982.567 405.228z"  horiz-adv-x="1024" />

    
    <glyph glyph-name="shezhi" unicode="&#58912;" d="M512.005103 896C229.242574 896 0.012757 666.775286 0.012757 384.007654c0-282.767632 229.229817-512.007654 511.992346-512.007654 282.767632 0 511.98214 229.245125 511.98214 512.007654C1023.987243 666.770183 794.767632 896 512.005103 896zM861.057162 349.008048c0-19.30872-15.66027-39.806375-35.004709-39.806375l-61.370501 0c-5.786493-12.465963-13.925343-38.367406-24.406345-56.844382l43.419106-40.928975c13.690617-13.690617 13.823288-35.841556 0.173493-49.501557l-49.190291-49.476044c-13.665104-13.660001-35.183305-13.660001-48.868819 0.025514l-42.138322 43.342565c-18.487181-10.486105-44.403933-18.701495-56.869895-24.487988l0-61.370501c0-19.359747-20.507861-35.020017-39.816581-35.020017L477.005496 34.940287c-19.30872 0-39.801273 15.66027-39.801273 35.004709l0 61.370501c-12.465963 5.786493-38.387817 13.925343-56.85969 24.411447l-40.928975-43.419106c-13.685515-13.690617-35.851762-13.828391-49.501557-0.178595l-49.476044 49.190291c-13.665104 13.665104-13.665104 35.183305 0.025514 48.868819l43.347668 42.148527c-10.470796 18.476975-18.686187 44.393727-24.47268 56.85969L197.962856 309.19657c-19.359747 0-35.020017 20.502758-35.020017 39.816581L162.942838 418.997055c0 19.30872 15.66027 39.801273 35.020017 39.801273l61.355193 0c5.78139 12.465963 13.915137 38.387817 24.411447 56.85969l-43.419106 40.928975c-13.690617 13.700823-13.813083 35.851762-0.163287 49.501557l49.180085 49.491352c13.649795 13.660001 35.19351 13.660001 48.884127-0.025514l42.133219-43.342565c18.476975 10.481002 44.393727 18.686187 56.85969 24.467577L437.204224 698.049901c0 19.344439 20.492553 35.004709 39.816581 35.004709l69.968596 0c19.30872 0 39.806375-15.66027 39.806375-35.004709l0-61.360295c12.465963-5.78139 38.398023-13.925343 56.844382-24.411447l40.928975 43.408901c13.690617 13.675309 35.841556 13.823288 49.501557 0.163287l49.481146-49.180085c13.675309-13.665104 13.660001-35.19351-0.025514-48.884127l-43.342565-42.123014c10.49631-18.471873 18.696393-44.403933 24.482885-56.869895l61.370501 0c19.359747 0 35.020017-20.492553 35.020017-39.816581L861.057162 349.008048zM512 541.452304c-86.950473 0-157.434444-70.483972-157.434444-157.439547 0-86.940267 70.483972-157.424239 157.434444-157.424239 86.965781 0 157.439547 70.483972 157.439547 157.424239C669.434444 470.968332 598.965781 541.452304 512 541.452304z"  horiz-adv-x="1024" />

    
    <glyph glyph-name="18" unicode="&#58899;" d="M839.676068 495.890188h-66.69589c-1.940263 6.353208-4.228646 12.46478-6.390068 18.589662l-0.794535 1.657671c-2.718416 6.847745-5.563793 12.959317-8.77265 19.789655l46.746509 48.297695 0.351192 0.47713c10.839874 11.313933 10.839874 29.709057 0 40.989202l-75.487993 78.255555v-0.262115c-10.729294 11.559665-28.848993 11.559665-39.688867 0.262115l-47.082342-49.249908c-6.390068 3.528309-13.001296 6.58563-19.616619 9.63988-5.817716 2.593502-12.777065 4.941271-19.502968 7.308494v69.039563c0 15.535412-12.653175 29.200186-28.038076 29.200186H467.967812c-15.498552 0-28.054458-13.665797-28.054458-29.200186v-69.039563c-6.947062-2.368247-13.44771-4.714992-19.837778-7.308494-6.725903-3.05425-12.780137-6.111572-19.281809-9.63988l-45.58747 47.820564-1.510231 1.429344c-10.824516 11.297551-28.816229 11.297551-39.561905 0l-75.598573-78.255555c-11.156254-11.281169-11.156254-29.675268 0-40.989202l47.209305-49.252979c-2.955957-5.402019-5.580175-11.774681-7.979139-17.899564l-0.794535-1.412961c-2.845377-6.602013-5.260723-13.415969-7.405762-20.247333h-67.063465c-15.387973 0-27.927496-12.959317-27.927496-29.233973v-110.489514c0-16.029949 12.539524-28.756843 27.927496-28.756843h67.301006a161.817908 161.817908 0 0 1 6.706449-18.868159l0.461772-1.382245c2.734798-7.321804 5.817716-13.661702 9.124866-19.786584l-46.30419-47.611691-1.256307-1.426272c-10.697554-11.28424-10.697554-29.661958 0-41.221624l75.598573-77.761018c10.745676-11.069224 28.738413-11.069224 39.561905 0l47.560497 49.020557c5.592462-3.303054 11.299598-6.127954 17.214584-8.721455l1.604429-0.460748c6.390068-2.83821 12.890716-5.219767 19.613547-7.799959v-69.026253c0-16.026877 12.780137-29.230902 28.278689-29.230902h106.735949c15.384901 0 28.038076 13.204025 28.038076 29.230902v69.026253c6.725903 2.580191 13.685251 4.960724 19.96474 7.799959 6.152527 2.580191 12.763754 5.650823 18.80263 9.182203l46.765962-48.530116 0.667573-0.491465c10.839874-11.069224 28.959573-11.069224 39.688867 0l75.136801 77.07092 0.351193 0.689075c10.839874 11.559665 10.839874 29.937383 0 41.221623l-47.098725 49.037964c3.20988 6.124882 6.055258 12.46478 8.772649 19.786583 2.624218 6.127954 4.78564 12.941911 7.184603 20.250404h66.695891c15.531316 0 28.07084 13.187643 28.07084 29.230903V464.062713l0.22423 2.842306c0.002048 16.025853-12.651127 28.98517-28.293023 28.985169z m-318.125266 38.3957c-32.713136 0-62.691475-13.68218-84.023101-35.803222-21.55381-22.171213-34.777289-53.043403-34.777289-86.727183 0-33.929512 13.223479-64.573376 34.777289-86.943222 21.332651-21.906027 51.310989-35.799126 84.023101-35.799126 32.85648 0 62.372022 13.894124 83.704673 35.799126 21.426848 22.369847 35.01483 53.01371 35.014831 86.943222 0 33.683779-13.587982 64.55597-35.014831 86.727183-21.332651 22.121042-50.848193 35.803222-83.704673 35.803222zM601.266418 329.014286c-20.581119-20.80535-48.792231-34.653399-79.865103-34.653398-31.521334 0-59.732446 13.848049-80.613563 34.653398-20.558593 20.760299-33.048971 50.672085-33.048971 83.108772s12.489353 61.714688 33.048971 82.515942c20.881117 21.070536 49.09223 34.019614 80.613563 34.019614 31.073896 0 59.285008-12.949078 79.865103-34.019614 20.711152-20.801254 33.540435-50.078231 33.540436-82.515942s-12.829283-62.348473-33.540436-83.108772z"  horiz-adv-x="1024" />

    
    <glyph glyph-name="shezhi1" unicode="&#58894;" d="M508.84288 478.08a90.88 90.88 0 0 1 0-181.376c24.32 0 47.04 9.344 64.192 26.496 17.152 17.152 26.56 39.872 26.56 64.128s-9.408 47.04-26.56 64.128a89.984 89.984 0 0 1-64.192 26.56M991.97888 281.216l-118.4 69.952 0.512 81.536 119.04 71.04a20.928 20.928 0 0 1 8.64 25.856l-48.64 118.976a20.928 20.928 0 0 1-24.64 12.288l-132.8-34.56-59.2 59.776 35.392 132.864a20.864 20.864 0 0 1-12.096 24.64L641.06688 893.44a20.928 20.928 0 0 1-26.048-8.64L544.87488 766.336 462.31488 766.72 392.55488 885.632a20.992 20.992 0 0 1-25.92 8.832l-119.168-48.64a20.928 20.928 0 0 1-12.288-24.768l34.944-132.736-60.352-59.712-132.416 35.968a20.864 20.864 0 0 1-24.704-12.096L2.92288 533.76a20.864 20.864 0 0 1 8.768-26.176l118.4-68.288-0.64-83.648L10.47488 285.184a20.928 20.928 0 0 1-8.704-25.92l48.64-118.912a20.8 20.8 0 0 1 24.832-12.288l131.968 35.328 58.048-59.2-33.728-134.528a20.928 20.928 0 0 1 12.16-24.32l118.784-49.792a20.928 20.928 0 0 1 25.984 8.576l70.848 118.336 80.96-0.384 70.848-119.04a20.864 20.864 0 0 1 25.856-8.576l118.912 48.704a20.864 20.864 0 0 1 12.288 24.576l-34.368 132.928 58.688 57.664 134.016-34.048a20.864 20.864 0 0 1 24.448 12.16l49.664 118.72a20.928 20.928 0 0 1-8.64 26.048zM595.43488 300.736c-24.96-25.024-58.24-38.784-93.632-38.784A131.584 131.584 0 0 0 407.97888 300.8a132.736 132.736 0 0 0 0 187.392c25.024 25.024 58.304 38.848 93.76 38.848 35.392 0 68.672-13.824 93.632-38.848 25.088-24.96 38.848-58.24 38.848-93.696 0-35.392-13.76-68.672-38.848-93.696z"  horiz-adv-x="1024" />

    
    <glyph glyph-name="shijuan" unicode="&#58910;" d="M847.644444-128H150.755556c-48.355556 5.688889-88.177778 45.511111-93.866667 93.866667V802.133333C62.577778 850.488889 102.4 887.466667 150.755556 896h466.488888l327.111112-278.755556v-651.377777c-8.533333-48.355556-48.355556-88.177778-96.711112-93.866667z m0 696.888889h-184.888888c-25.6 2.844444-42.666667 22.755556-45.511112 45.511111V802.133333H196.266667c-25.6 0-45.511111-19.911111-45.511111-45.511111v-745.244444c5.688889-22.755556 22.755556-42.666667 45.511111-45.511111h605.866666c25.6 2.844444 45.511111 22.755556 45.511111 45.511111V568.888889z m-546.133333-512c-5.688889 0-8.533333 5.688889-8.533333 8.533333 0 2.844444 2.844444 8.533333 5.688889 8.533334C429.511111 128 571.733333 156.444444 711.111111 162.133333v-2.844444c11.377778 0 25.6 2.844444 36.977778 2.844444v-5.688889c-142.222222-14.222222-281.6-42.666667-415.288889-85.333333-8.533333-8.533333-19.911111-11.377778-31.288889-14.222222zM625.777778 219.022222c-14.222222 0-28.444444 2.844444-36.977778 14.222222s-17.066667 22.755556-17.066667 36.977778c0 39.822222 11.377778 76.8 36.977778 108.088889 22.755556 31.288889 56.888889 54.044444 93.866667 68.266667 14.222222 0 25.6-8.533333 31.288889-19.911111-2.844444-2.844444-5.688889-5.688889-8.533334-5.688889 14.222222-5.688889 19.911111-17.066667 19.911111-31.288889 2.844444-79.644444-48.355556-150.755556-119.466666-170.666667z m76.8 182.044445c-5.688889-2.844444-14.222222-8.533333-19.911111-14.222223-2.844444 0-2.844444 2.844444-2.844445 5.688889-42.666667-25.6-71.111111-71.111111-73.955555-119.466666 0-5.688889 2.844444-25.6 11.377777-22.755556 14.222222 5.688889 25.6 11.377778 34.133334 22.755556l28.444444 31.288889c17.066667 22.755556 28.444444 51.2 34.133334 79.644444 5.688889 8.533333-2.844444 14.222222-11.377778 17.066667z m-162.133334 199.111111H201.955556c-11.377778 0-19.911111 8.533333-19.911112 19.911111 0 5.688889 2.844444 11.377778 5.688889 14.222222 2.844444 5.688889 8.533333 8.533333 14.222223 8.533333H540.444444c5.688889 0 11.377778-2.844444 14.222223-5.688888 2.844444-2.844444 5.688889-8.533333 5.688889-14.222223s-2.844444-11.377778-5.688889-14.222222-8.533333-8.533333-14.222223-8.533333zM201.955556 557.511111H369.777778c5.688889 0 11.377778-2.844444 14.222222-5.688889s5.688889-8.533333 5.688889-14.222222-2.844444-11.377778-5.688889-14.222222-8.533333-5.688889-14.222222-5.688889H201.955556c-11.377778 0-19.911111 8.533333-19.911112 19.911111 0 5.688889 2.844444 11.377778 5.688889 14.222222 2.844444 2.844444 8.533333 5.688889 14.222223 5.688889z m108.088888-196.266667l-31.288888-14.222222c-2.844444-2.844444-5.688889-2.844444-8.533334-2.844444-2.844444 0-2.844444 5.688889-2.844444 8.533333 0 8.533333 5.688889 14.222222 14.222222 17.066667 17.066667 14.222222 34.133333 25.6 54.044444 34.133333 8.533333-2.844444 14.222222-11.377778 17.066667-19.911111 0-8.533333 0-8.533333-39.822222-99.555556-14.222222-28.444444-25.6-59.733333-28.444445-91.022222 0-2.844444 2.844444-8.533333 2.844445-11.377778v-2.844444l-2.844445-2.844444c-2.844444 0-5.688889 0-5.688888 2.844444-14.222222 0-25.6 8.533333-28.444445 22.755556 0 22.755556 5.688889 48.355556 14.222222 68.266666 11.377778 31.288889 28.444444 59.733333 45.511111 91.022222z m250.311112 2.844445c5.688889-76.8-42.666667-145.066667-116.622223-164.977778-14.222222 0-28.444444 2.844444-36.977777 14.222222-11.377778 8.533333-17.066667 22.755556-17.066667 36.977778 0 39.822222 11.377778 76.8 36.977778 108.088889 22.755556 31.288889 56.888889 54.044444 93.866666 68.266667 14.222222 0 25.6-8.533333 31.288889-19.911111-2.844444-2.844444-5.688889-5.688889-8.533333-5.688889 8.533333-8.533333 17.066667-22.755556 17.066667-36.977778z m-39.822223 17.066667c-5.688889-2.844444-14.222222-8.533333-19.911111-14.222223-2.844444 0-2.844444 2.844444-2.844444 5.688889-42.666667-25.6-71.111111-71.111111-73.955556-119.466666 0-5.688889 2.844444-25.6 11.377778-22.755556 14.222222 5.688889 25.6 11.377778 34.133333 22.755556l28.444445 31.288888c17.066667 22.755556 28.444444 51.2 34.133333 79.644445 5.688889 8.533333-2.844444 14.222222-11.377778 17.066667z m-258.844444-273.066667c130.844444 54.044444 273.066667 82.488889 412.444444 88.177778v-2.844445c14.222222 0 25.6 2.844444 36.977778 2.844445v-5.688889c-142.222222-14.222222-281.6-42.666667-415.288889-85.333334-11.377778-5.688889-19.911111-8.533333-31.288889-11.377777h-2.844444c-2.844444 0-5.688889 2.844444-5.688889 8.533333l5.688889 5.688889z"  horiz-adv-x="1024" />

    
    <glyph glyph-name="yejitongjitutianjia" unicode="&#58921;" d="M274.702 452.394l-107.049-17.573V73.63h107.049zM439.785 73.63V491.829l-107.05 17.364V73.63zM604.45 655.887l165.48 169.56-179.371 44.958v-63.347l-422.906-91.715v-117.071L604.45 738.209zM604.45 73.63V577.017L497.4 559.862V73.63zM769.93 191.705V742.916L662.274 633v-501.148c27.154 31.673 64.539 53.723 107.656 59.853zM619.575 18.463H81.23v-69.456h553.872c-3.895 8.159-7.577 16.946-9.815 25.941-3.473 13.892-5.712 28.599-5.712 43.515zM949.72 44.614c-12.259 67.824-71.297 119.309-143.012 119.309-80.083 0-145.062-65.167-145.062-145.46 0-12.469 1.234-24.519 4.916-36.171 15.92-62.719 72.723-108.891 140.146-108.891 80.292 0 145.041 65.376 145.041 145.062 0 9.184-0.816 17.573-2.029 26.151z m-66.401-39.226c0-5.314-4.076-8.996-9.205-8.996h-51.276v-51.067c0-5.314-4.079-9.393-9.184-9.393h-15.523c-5.105 0-9.205 4.079-9.205 9.393v51.067H737.65c-4.498 0-8.577 3.682-8.577 8.996v15.523c0 5.105 4.079 8.996 8.577 8.996h51.276v51.485c0 4.895 4.1 8.975 9.205 8.975h15.523c5.105 0 9.184-4.079 9.184-8.975v-51.485h51.276c5.129 0 9.205-3.891 9.205-8.996v-15.523z"  horiz-adv-x="1024" />

    
    <glyph glyph-name="jiaoliudian" unicode="&#58907;" d="M799.489891 728.071301h-573.147951c-31.030303 0-56.58467-25.554367-56.58467-56.58467v-573.14795c0-31.030303 25.554367-56.58467 56.58467-56.58467h573.147951c31.030303 0 56.58467 25.554367 56.58467 56.58467V671.486631c0 31.030303-25.554367 56.58467-56.58467 56.58467z m-532.991088-63.885918h494.659537c14.602496 0 27.379679-12.777184 27.379679-27.379679s-12.777184-27.379679-27.379679-27.379679h-494.659537c-16.427807 0-27.379679 12.777184-27.379679 27.379679s10.951872 27.379679 27.379679 27.379679z m534.816399-522.039215c0-23.729055-18.253119-41.982175-41.982174-41.982175h-489.183601c-23.729055 0-41.982175 18.253119-41.982175 41.982175V450.623886c0 23.729055 18.253119 41.982175 41.982175 41.982175h489.183601c23.729055 0 41.982175-18.253119 41.982174-41.982175v-308.477718zM757.507716 467.051693h-489.183601c-9.12656 0-16.427807-7.301248-16.427807-16.427807v-308.477718c0-9.12656 7.301248-16.427807 16.427807-16.427808h489.183601c9.12656 0 16.427807 7.301248 16.427807 16.427808V450.623886c0 9.12656-7.301248 16.427807-16.427807 16.427807zM686.32055 202.381462c-5.475936-3.650624-12.777184-3.650624-20.078431-3.650624-3.650624 0-9.12656 0-14.602496 1.825312-36.506239 9.12656-41.982175 52.934046-47.45811 98.566845-5.475936 38.331551-10.951872 80.313725-34.680927 78.488413-18.253119-1.825312-29.204991-32.855615-36.506239-58.409982-9.12656-31.030303-20.078431-60.235294-49.283423-62.060606-32.855615-1.825312-40.156863 20.078431-45.632798 34.680927-5.475936 18.253119-9.12656 20.078431-21.903744 20.078431-18.253119-1.825312-25.554367-32.855615-31.030303-56.58467-7.301248-27.379679-12.777184-51.108734-36.506238-51.108734-32.855615 0-45.632799 29.204991-47.458111 47.45811l23.729055 1.825312s3.650624-29.204991 21.903744-29.204991c3.650624 1.825312 9.12656 23.729055 12.777183 36.506239 7.301248 31.030303 16.427807 67.536542 51.108735 71.187166 34.680927 3.650624 41.982175-18.253119 47.45811-32.855615 5.475936-16.427807 9.12656-21.903743 20.078432-20.078432 10.951872 0 20.078431 29.204991 25.554367 47.458111 10.951872 34.680927 21.903743 69.361854 58.409982 71.187166 47.458111 3.650624 54.759358-47.458111 62.060606-94.916221 5.475936-34.680927 10.951872-76.663102 31.030303-82.139038 5.475936-1.825312 9.12656-1.825312 14.602496 0 14.602496 7.301248 23.729055 31.030303 23.729055 40.156863l23.729055-3.650624c3.650624-5.475936-3.650624-41.982175-31.030303-54.759358zM881.628928 896h-739.251337c-78.488414 0-142.374332-63.885918-142.374332-142.374332v-739.251336c0-78.488414 63.885918-142.374332 142.374332-142.374332h739.251337c78.488414 0 142.374332 63.885918 142.374331 142.374332V753.625668c0 78.488414-63.885918 142.374332-142.374331 142.374332z m1.825312-797.661319c0-45.632799-36.506239-82.139037-82.139038-82.139038h-573.14795c-45.632799 0-82.139037 36.506239-82.139037 82.139038V671.486631c0 45.632799 36.506239 82.139037 82.139037 82.139037h573.14795c45.632799 0 82.139037-36.506239 82.139038-82.139037v-573.14795z"  horiz-adv-x="1025" />

    
    <glyph glyph-name="xiaojiaoliudian" unicode="&#58911;" d="M96 896c-54.4 0-96-41.6-96-96v-832c0-54.4 41.6-96 96-96h928V896h-928z m134.4-224h566.4v-41.6h-566.4V672z m534.4-604.8c-9.6-6.4-22.4-9.6-32-9.6s-16 0-22.4 3.2c-54.4 19.2-64 115.2-73.6 217.6-6.4 83.2-16 179.2-51.2 176-25.6 0-41.6-70.4-54.4-128-16-70.4-28.8-134.4-73.6-137.6-48-3.2-60.8 44.8-67.2 76.8-9.6 41.6-16 48-32 44.8-25.6-3.2-35.2-73.6-44.8-124.8-9.6-60.8-19.2-115.2-54.4-115.2-51.2 0-67.2 67.2-70.4 105.6l38.4 3.2s6.4-67.2 35.2-67.2c6.4 6.4 16 51.2 19.2 80 9.6 70.4 22.4 150.4 76.8 156.8 54.4 9.6 67.2-41.6 73.6-73.6 9.6-35.2 16-44.8 32-44.8s28.8 64 38.4 105.6c19.2 76.8 35.2 153.6 89.6 160 70.4 9.6 83.2-102.4 92.8-211.2 6.4-76.8 16-169.6 48-182.4 9.6-3.2 16 0 22.4 3.2 22.4 16 35.2 70.4 38.4 89.6l25.6-9.6c0-9.6-12.8-89.6-54.4-118.4z"  horiz-adv-x="1024" />

    
    <glyph glyph-name="jiaoliuweixuanzhong" unicode="&#59063;" d="M772.654545 288.581818c20.945455 0 39.563636 13.963636 44.218182 34.909091l27.927273 104.727273c6.981818 25.6-9.309091 51.2-32.581818 55.854545-25.6 6.981818-51.2-9.309091-55.854546-32.581818l-27.927272-104.727273c-6.981818-25.6 9.309091-51.2 32.581818-55.854545 4.654545-2.327273 6.981818-2.327273 11.636363-2.327273z m-195.490909-2.327273c20.945455 0 39.563636 13.963636 44.218182 34.909091l27.927273 104.727273c6.981818 25.6-9.309091 51.2-32.581818 55.854546-25.6 6.981818-51.2-9.309091-55.854546-32.581819l-27.927272-104.727272c-6.981818-25.6 9.309091-51.2 32.581818-55.854546 4.654545-2.327273 6.981818-2.327273 11.636363-2.327273zM118.690909 2.327273c-9.309091 6.981818-13.963636 18.618182-11.636364 27.927272 2.327273 11.636364 11.636364 20.945455 20.945455 23.272728 48.872727 11.636364 65.163636 16.290909 81.454545 30.254545-74.472727 53.527273-162.909091 165.236364-162.90909 300.218182C46.545455 635.345455 260.654545 849.454545 516.654545 849.454545 770.327273 849.454545 977.454545 642.327273 977.454545 386.327273c0-253.672727-169.890909-435.2-430.545454-463.127273-25.6-2.327273-48.872727-4.654545-74.472727-4.654545-141.963636 0-286.254545 39.563636-353.745455 83.781818z m88.436364 9.309091c83.781818-30.254545 214.109091-55.854545 335.127272-41.890909 239.709091 27.927273 388.654545 186.181818 388.654546 418.90909C930.909091 616.727273 744.727273 802.909091 516.654545 802.909091 286.254545 802.909091 93.090909 612.072727 93.090909 384c0-128 100.072727-244.363636 172.218182-276.945455 9.309091-4.654545 16.290909-11.636364 16.290909-23.272727 2.327273-9.309091-2.327273-18.618182-9.309091-25.6l-6.981818-6.981818c-20.945455-18.618182-34.909091-30.254545-58.181818-39.563636"  horiz-adv-x="1024" />

    
    <glyph glyph-name="sifakaoshi" unicode="&#59131;" d="M755.2 505.7c0 11-9 20-20 20H286.5c-11 0-20-9-20-20s9-20 20-20h448.7c11 0 20 9 20 20zM679.5 368.9c0 11-9 20-20 20h-373c-11 0-20-9-20-20s9-20 20-20h372.9c11.1 0 20.1 9 20.1 20zM286.5 250.4c-11 0-20-9-20-20s9-20 20-20H529c11 0 20 9 20 20s-9 20-20 20H286.5zM367.8-24.6h-141v818H800v-293c0-11 9-20 20-20s20 9 20 20V801.6c0 17.5-14.3 31.8-31.9 31.8H218.6c-17.6 0-31.9-14.3-31.9-31.8v-834.4c0-17.5 14.3-31.8 31.9-31.8h149.1c11 0 20 9 20 20s-8.9 20-19.9 20zM820 105.3c-11 0-20-9-20-20v-109.8H691.3c-11 0-20-9-20-20s9-20 20-20h116.9c17.6 0 31.9 14.3 31.9 31.9v118c-0.1 10.9-9 19.9-20.1 19.9zM943.8 363.6l-40.4 39.7c-4.6 4.3-9.9 7.6-15.7 10s-11.8 3.6-17.7 3.6c-6 0-12-1.2-18-3.6s-11.1-5.7-15.5-10L581.3 153.4l106.6-106.6 255.8 250.7c9.2 9.1 13.9 20.1 13.9 33.1 0 12.9-4.6 23.9-13.8 33zM510.7 84.2L472.2-42l-6.1-18.8L620-19.7l38.6 37.7L552 124.6zM726.5 597.6h-429c-14.8 0-26.8 12-26.8 26.8v81.4c0 14.8 12 26.8 26.8 26.8h429c14.8 0 26.8-12 26.8-26.8v-81.4c0-14.8-12-26.8-26.8-26.8z"  horiz-adv-x="1024" />

    
    <glyph glyph-name="jiaoliu" unicode="&#58884;" d="M706.666667 399.36c0 83.626667-96.64 151.68-215.466667 151.68s-215.466667-68.053333-215.466667-151.68c0-40.96 23.04-79.466667 64.96-108.373333a10.666667 10.666667 0 0 0 2.986667-14.506667l-39.146667-61.44L437.333333 251.52a10.666667 10.666667 0 0 0 4.586667 0 302.826667 302.826667 0 0 1 49.173333-3.946667c118.933333 0.106667 215.573333 68.16 215.573334 151.786667zM373.333333 366.933333a34.24 34.24 0 1 0 34.24 34.24A34.24 34.24 0 0 0 373.333333 366.933333z m232 68.373334a34.24 34.24 0 1 0-34.24-34.24 34.24 34.24 0 0 0 34.026667 34.24zM456.96 401.066667a34.24 34.24 0 1 0 34.24-34.24 34.24 34.24 0 0 0-34.24 34.24zM512 896a512 512 0 1 1 512-512A512 512 0 0 1 512 896zM283.413333 187.2a10.666667 10.666667 0 0 0-2.773333 0 10.666667 10.666667 0 0 0-9.066667 15.466667L320 279.573333c-42.666667 32-65.813333 74.666667-65.813333 119.893334 0 95.36 106.666667 173.013333 236.8 173.013333s236.8-77.653333 236.8-173.013333-106.666667-173.013333-236.8-173.013334a324.053333 324.053333 0 0 0-50.346667 3.946667z m473.92-2.133333a10.666667 10.666667 0 0 0-12.16-15.146667L650.666667 194.026667a86.506667 86.506667 0 0 1-10.026667-4.693334 211.093333 211.093333 0 0 0-97.706667-24.533333h-17.493333a350.72 350.72 0 0 0-54.186667 4.48 10.666667 10.666667 0 0 0 3.2 21.333333 317.44 317.44 0 0 1 67.52-3.84 189.44 189.44 0 0 1 88.853334 22.186667 62.506667 62.506667 0 0 0 18.133333 7.253333 10.666667 10.666667 0 0 0 4.373333 0l74.666667-18.986666L704 241.6a10.666667 10.666667 0 0 0 1.386667 11.733333c25.066667 29.546667 35.52 41.706667 42.666666 81.6a10.666667 10.666667 0 0 0 21.333334-3.733333c-7.68-42.666667-19.626667-58.88-42.666667-86.186667z"  horiz-adv-x="1024" />

    
    <glyph glyph-name="kaoshi" unicode="&#58891;" d="M930 746.39H94a17 17 0 0 1-17-17v-553a17 17 0 0 1 17-17h574.25V564.64a17.94 17.94 0 0 0 17.92 17.92h55.57a17.94 17.94 0 0 0 17.92-17.92V159.4H930a17 17 0 0 1 17 17v553a17 17 0 0 1-17 16.99zM446.35 574.23a10 10 0 0 0-10-10H198.57a10 10 0 0 0-10 10v47.51a10 10 0 0 0 10 10h237.78a10 10 0 0 0 10-10zM188.57 631.74l257.78 0 0-67.51-257.78 0 0 67.51ZM741.73 582.55h-55.56a17.94 17.94 0 0 1-17.92-17.92v-452a2.45 2.45 0 0 1 0.35-1.27l0.17-0.28 45-83.68 45.38 83.7 0.17 0.27a2.47 2.47 0 0 1 0.36 1.28V564.64a17.94 17.94 0 0 1-17.95 17.91zM930 759.39H94a30 30 0 0 1-30-30v-553a30 30 0 0 1 30-30h561.25v-33.72a15.46 15.46 0 0 1 2.22-8l49.63-92.35a7.73 7.73 0 0 1 13.22 0l50.07 92.35a15.46 15.46 0 0 1 2.25 8V146.4H930a30 30 0 0 1 30 30v553a30 30 0 0 1-30 29.99z m-183.35-644l-32.86-60.6-32.54 60.55v449.3a4.92 4.92 0 0 0 4.92 4.92h55.57a4.92 4.92 0 0 0 4.92-4.92zM934 176.4a4 4 0 0 0-4-4H772.65V539.53h6.41v-157.42a13 13 0 0 1 26 0V552.53a13 13 0 0 1-13 13h-19.43a30.91 30.91 0 0 1-30 30v65a20 20 0 0 1-20 20h-17.32a20 20 0 0 1-20-20v-65a30.91 30.91 0 0 1-30.06-30.9V172.4H94a4 4 0 0 0-4 4v553a4 4 0 0 0 4 4h836a4 4 0 0 0 4-4zM436.35 644.74H198.57a23 23 0 0 1-23-23v-47.51a23 23 0 0 1 23-23h237.78a23 23 0 0 1 23 23v47.51a23 23 0 0 1-23 23z m-3-67.51H201.57v41.51h231.78zM443.57 388.22H190.43a13 13 0 1 1 0-26h253.14a13 13 0 0 1 0 26zM364.15 285.44H190.43a13 13 0 1 1 0-26h173.72a13 13 0 1 1 0 26z"  horiz-adv-x="1024" />

    
    <glyph glyph-name="icon-test" unicode="&#58916;" d="M563.749 351.961v50.025H534.56l-18.612 47.475 18.612 20.197-39.127 38.487-19.57-18.929-48.744 18.929v29.829h-59.014v-29.182l-43.304-19.576-30.15 18.929-39.133-37.851 29.198-20.518-18.928-47.791-39.13-0.316v-48.746l39.13-0.963 18.606-47.795-28.218-24.693 38.792-39.137 19.241 19.576 54.205-19.576-0.311-29.818h59.332l0.316 29.818 47.793 19.576 20.208-19.576 39.439 38.814-19.877 24.701 19.243 48.109h29.192z m-165.178-57.732c-46.587 0-84.361 37.764-84.361 84.354 0 46.577 37.774 84.351 84.361 84.351 46.574 0 84.348-37.773 84.348-84.351 0-46.591-37.773-84.354-84.348-84.354zM797.342 440.4v36.301H776.17l-13.504 34.447 13.504 14.669-28.402 27.93-14.201-13.72-35.378 13.72v21.64H655.36v-21.172l-31.408-14.188-21.879 13.72-28.403-27.467 21.183-14.89-13.733-34.689-28.392-0.229v-35.367l28.392-0.705 13.494-34.685-20.475-17.92 28.163-28.392 13.962 14.201 39.337-14.201-0.24-21.641h43.062l0.229 21.641 34.687 14.201 14.669-14.201 28.615 28.163-14.425 17.926L776.17 440.4h21.172z m-119.863-41.888c-33.81 0-61.216 27.406-61.216 61.211 0 33.799 27.406 61.219 61.216 61.219 33.794 0 61.216-27.42 61.216-61.219 0-33.805-27.422-61.211-61.216-61.211zM702.158 255.307v22.178h-12.944l-8.255 21.035 8.255 8.969-17.343 17.055-8.669-8.387-21.623 8.387v13.221h-26.154v-12.938l-19.189-8.67-13.357 8.387-17.354-16.777 12.933-9.109-8.375-21.172-17.354-0.141v-21.607l17.354-0.43 8.238-21.188-12.519-10.945 17.213-17.35 8.527 8.68 24.035-8.68-0.152-13.211h26.296l0.146 13.211 21.183 8.68 8.968-8.68 17.479 17.207-8.815 10.945 8.532 21.33h12.944z m-73.234-25.594c-20.632 0-37.382 16.75-37.382 37.393 0 20.648 16.75 37.389 37.382 37.389 20.659 0 37.404-16.74 37.404-37.389 0-20.643-16.745-37.393-37.404-37.393zM512.013 802.826C280.69 802.826 93.182 615.305 93.182 384c0-231.307 187.508-418.826 418.831-418.826 231.315 0 418.806 187.52 418.806 418.826-0.001 231.305-187.491 418.826-418.806 418.826z m-0.001-819.795c-221.459 0-400.973 179.524-400.973 400.969 0 221.442 179.514 400.969 400.973 400.969 221.453 0 400.949-179.526 400.949-400.969 0-221.444-179.496-400.969-400.949-400.969z"  horiz-adv-x="1024" />

    
    <glyph glyph-name="shezhi2" unicode="&#58893;" d="M945.7 306.3c-0.6 6.7-4.5 12.8-12 14.7h-0.8c-15 3.9-25.5 12.7-33.4 27.3-7.1 12.9-9 28.9-3.4 42.9 2.7 5.8 1.3 13.4-4.3 18.6-15.3 15.7-34.2 28.1-55.7 36.5-5.8 2.7-12.5 1.3-18.6-4.3-9.7-11.4-24.1-16.7-40-16.1-14.2 0.5-27.4 7.8-38.7 19.9-6.4 7-13.2 6.4-18.3 4.9-22.1-8.4-41-18.6-57.4-31.4-6-4-8.8-11.4-6.6-18.2 3.6-16.1 1.3-31.1-6.7-44.2-7.1-11.5-20.1-20.2-35.3-23.8-0.8 0-0.8 0-1.7-0.8-5.1-2.3-8.6-6.4-11.4-12.2v-0.8c-3-12.5-4.2-23.3-4.7-34.2-0.4-10.9-0.1-23.5 2.1-33.6 0.6-6.7 4.5-12.8 12-14.7h0.8c15-3.9 25.5-12.7 33.4-27.3 7.1-12.9 9-28.9 3.4-42.9-2.7-5.8-1.3-13.4 4.3-18.6 15.3-15.7 34.2-28.1 56.5-36.5 0.8 0 1.6-0.9 3.3-1l2.5-0.1c4.2-0.2 9.3 1.3 13.6 5.4 9.6 10.5 24.1 16.7 40 16.1 14.2-0.5 27.4-7.8 38.7-19.9 3.2-3.5 7.3-6.2 11.5-6.3 1.7-0.1 4.2-0.2 5.9 0.6 22.1 8.4 41 18.6 57.4 31.4 6 3.1 8.8 11.4 6.6 18.2-3.6 16.1-1.3 31.1 6.7 44.2 7.1 11.5 20.1 20.2 35.3 23.8 0.8 0 0.8 0 1.7 0.8 5.1 2.3 8.6 6.4 11.4 12.2v0.8c3 12.5 4.2 23.3 4.7 34.2-0.3 11.7-0.7 23.4-2.8 34.4z m-176.1-85.6c-32.7 1.2-57.7 28.2-56.4 60.9 1.2 32.7 28.2 57.7 60.9 56.4s57.7-28.2 56.4-60.9c-1.2-32.6-28.2-57.6-60.9-56.4z m0 0M545.5 233.2H264.1c-70.5 0-130.8 53.1-137.3 120.6-3.2 38.3 9.2 74.8 35 102.8 25.4 27.6 61.6 43.5 99.3 43.5h12.6l37.6-2.4 11.8 35.4c31 88.7 112.4 146.1 207.4 146.1 115.4 0 210.7-88.2 221.9-200.7 7.3-3.6 14.9-5.5 22.8-5.5 16.8 0 31.9 6.1 41.8 18.3-3.2 26.5-10.1 52.3-20.6 77.1-14.6 34.3-35.4 65.2-62 91.8-26.6 26.5-57.4 47.4-91.8 62C607 737.3 569.3 745 530.4 745c-61.1 0-119-18.3-167.3-53-44.5-32-78.3-75.9-98.1-127.6h-2.5c-60.6 0-117.4-26.6-156-73.1-18.3-22-31.3-46.9-38.7-74.1-7.8-28.5-8.9-58-3.4-87.7 8.7-46.1 34-87.7 71.2-117.1 36.5-28.9 82.6-44.9 130-44.9h279.9c18.7 0 32.9 14.1 32.9 32.9s-14.2 32.8-32.9 32.8z"  horiz-adv-x="1024" />

    
    <glyph glyph-name="icon-kaoshijilu" unicode="&#58976;" d="M338.2 384.6c-17.7 0-32-14.3-32-32s14.3-32 32-32 32 14.3 32 32-14.4 32-32 32zM636.5 384.6H448.2c-17.7 0-32-14.3-32-32s14.3-32 32-32h188.3c17.7 0 32 14.3 32 32s-14.4 32-32 32zM338.2 256.79999999999995c-17.7 0-32-14.3-32-32s14.3-32 32-32 32 14.3 32 32c0 17.6-14.4 32-32 32zM338.2 128.39999999999998c-17.7 0-32-14.3-32-32s14.3-32 32-32 32 14.3 32 32-14.4 32-32 32zM388.6 654H355c-1.9 0-4.5-1.3-4.8-3.2L321 477.3c-0.6-3.7 2.2-7 5.9-7h30.7c1.9 0 3.6 1.4 3.9 3.3l31 175.7c0.5 2.5-1.4 4.7-3.9 4.7zM488.6 482c11.5 9.2 18.7 20.3 22 39.4l14.2 80.3c3.4 19.1 0.1 30.2-8.1 39.4-8.2 9.5-21.8 14.2-36.6 14.2s-30.1-4.6-41.6-14.2c-11.5-9.2-18.7-20.3-22-39.4l-14.2-80.3c-3.4-19.1-0.1-30.2 8.1-39.4 8.2-9.5 21.8-14.2 36.6-14.2s30 4.6 41.6 14.2z m-45.4 37.8l14.7 83.4c1.8 10.2 8.2 15.1 15.6 15.1s12.1-4.9 10.3-15.1l-14.7-83.4c-1.8-10.2-8.2-15.1-15.6-15.1s-12 5-10.3 15.1zM576.9 467.8c14.8 0 30.1 4.6 41.6 14.2 11.5 9.2 18.7 20.3 22 39.4l14.2 80.3c3.4 19.1 0.1 30.2-8.1 39.4-8.2 9.5-21.8 14.2-36.6 14.2s-30.1-4.6-41.6-14.2c-11.5-9.2-18.7-20.3-22-39.4l-14.2-80.3c-3.4-19.1-0.1-30.2 8.1-39.4 8.1-9.6 21.8-14.2 36.6-14.2z m-3.8 52l14.7 83.4c1.8 10.2 8.2 15.1 15.6 15.1s12.1-4.9 10.3-15.1L599 519.8c-1.8-10.2-8.2-15.1-15.6-15.1s-12.1 5-10.3 15.1zM824.4 128.39999999999998h-56c-3.3 0-6 2.7-6 6v36c0 17.7-14.3 32-32 32s-32-14.3-32-32v-58c0-26.5 21.5-48 48-48h78c17.7 0 32 14.3 32 32 0 17.6-14.3 32-32 32zM644.8 499.6l-0.3-0.2-0.2-0.3c-0.6-1.1-0.7-2-0.3-2.8 0.5-0.8 1.3-1.2 2.6-1.2h0.4l0.3 0.2c1.4 0.8 2.7 1.7 4 2.6 0.2-0.4 0.6-0.9 1.3-1.2l0.3-0.2h6.5c-1-8.7-5.6-14.7-13.8-18.3l-0.4-0.2-0.2-0.4c-0.6-1.1-0.7-2-0.3-2.8 0.5-0.8 1.3-1.2 2.6-1.2h0.3l0.3 0.1c10 4.1 15.6 11.7 16.7 22.9h12c0.4 0 0.5-0.1 0.5-0.1s0.1-0.2 0.1-0.5c0-3.5-0.4-8.2-1-13.9-0.4-2.7-1.6-3.2-2.5-3.3-2.1 0-4.9 0.7-8.2 2l-0.4 0.2-0.4-0.1c-1.3-0.3-1.9-1-2.1-1.5-0.4-0.8-0.2-1.8 0.4-2.9l0.3-0.4 0.5-0.2c3.7-1.5 7.2-2.2 10.4-2.2h0.2c2.6 0.2 6 1.7 7 7.6 0.7 4.5 1.1 9.6 1.1 15.1 0 0.4 0 0.7-0.1 1.1 0.9-0.7 1.8-1.4 2.7-2l0.3-0.2c0.5-0.2 1-0.3 1.4-0.3 0.6 0 1.1 0.2 1.6 0.5 0.7 0.6 1 1.5 0.8 2.8l-0.1 0.6-0.5 0.4c-5.7 4.1-10.9 10.1-15.5 17.9l-0.2 0.3-0.3 0.2c-1.1 0.6-2 0.8-2.9 0.4-0.5-0.2-1.2-0.8-1.5-2.1l-0.1-0.5 0.3-0.5c2.9-5.3 6-9.8 9.4-13.4-0.2 0-0.4 0.1-0.7 0.1h-21.4c3.4 3.5 6.1 7.8 7.9 12.8l0.1 0.4-0.1 0.4c-0.2 1.2-0.8 2-1.6 2.4-0.9 0.3-1.9 0.1-2.9-0.7l-0.3-0.3-0.1-0.4c-2.7-7-7.4-12.6-13.9-16.7zM864.3 305l-1.5 503.2c0 13.2-10.7 23.9-23.9 23.9l-650.7 1.4c-15.5 0-28-12.5-28-28V-35c0-15.5 12.5-28 28-28h431.5c36-25.4 79.9-40.4 127.4-40.4 122.1 0 221 98.9 221 221-0.1 79-41.5 148.3-103.8 187.4zM448.2 192.79999999999995h90.9c-7.3-20.2-11.8-41.8-12.8-64.3h-78.1c-17.7 0-32-14.3-32-32s14.3-32 32-32h84.3c5.6-22.7 14.8-44.1 26.8-63.4H236.1c-6.6 0-12 5.4-12 12V757.5c0 6.6 5.4 12 12 12l550.7-1.3c6.6 0 11.9-5.4 12-12 0.5-139.9 1.4-424 1.4-424-17.1 4.2-34.9 6.5-53.3 6.5-69.3 0-131.2-31.9-171.7-81.9h-127c-17.7 0-32-14.3-32-32s14.3-32 32-32z m411-185c-29.4-30-68.7-46.7-110.6-47.2-41.5-0.4-81.8 15.7-111.5 44.8-30 29.4-46.7 68.7-47.2 110.6-0.4 41.5 15.7 81.8 44.8 111.5 29.4 30 68.7 46.7 110.6 47.2 41.5 0.4 81.8-15.7 111.5-44.8 30-29.4 46.7-68.7 47.2-110.6 0.4-41.5-15.7-81.8-44.8-111.5z"  horiz-adv-x="1024" />

    
    <glyph glyph-name="zy_jiaoliu" unicode="&#58880;" d="M704 505.6c83.2 0 149.333 68.267 149.333 151.467 0 85.333-66.133 153.6-149.333 153.6S554.667 742.4 554.667 659.2c0-85.333 66.133-153.6 149.333-153.6z m-339.2 0c83.2 0 149.333 68.267 149.333 151.467 0 83.2-66.133 151.466-149.333 151.466s-149.333-68.266-149.333-151.466S281.6 505.6 364.8 505.6zM576 533.3330000000001c4.267 17.067-51.2 17.067-64 0S435.2 467.2 381.867 467.2c-55.467-2.133-102.4 29.867-115.2 34.133-12.8 4.267-27.734-6.4-27.734-6.4s-68.266-121.6-68.266-153.6 108.8-125.866 119.466-136.533l8.534-226.133s-4.267-19.2 19.2-21.334h151.466s19.2 10.667 21.334 21.334V448c17.066 2.133 81.066 68.267 85.333 85.333zM277.333 298.66700000000003c-10.666 6.4-36.266 38.4-42.666 64s42.666 49.066 42.666 49.066c12.8 6.4 19.2-53.333 21.334-70.4S288 292.26700000000005 277.333 298.66700000000003zM787.2 494.933l-27.733-12.8s-36.267-12.8-57.6-12.8c-19.2 0-49.067 12.8-49.067 12.8l-27.733 12.8c-23.467 6.4-40.534-21.333-40.534-21.333-12.8-12.8-29.866-27.733-53.333-46.933-32-25.6 6.4-68.267 53.333-102.4 0 0 6.4-326.4 10.667-343.467s8.533-21.333 14.933-21.333h147.2c4.267 0 25.6 4.266 29.867 21.333s0 192 0 192c55.467 0 64 74.667 64 74.667V448s-4.267 29.867-21.333 42.667-42.667 4.266-42.667 4.266z"  horiz-adv-x="1024" />

    
    <glyph glyph-name="kaoshiyuejuan" unicode="&#58957;" d="M752.941176 69.692235v60.235294h144.564706c17.588706 0 36.141176 21.865412 36.141177 53.187765V523.264c0 31.322353-18.552471 53.127529-36.141177 53.127529H126.494118c-17.588706 0-36.141176-21.805176-36.141177-53.127529v-340.148706c0-31.322353 18.552471-53.187765 36.141177-53.187765H271.058824v-60.235294H126.494118c-53.248 0-96.376471 50.778353-96.376471 113.423059V523.264c0 62.644706 43.128471 113.362824 96.376471 113.362824h771.011764c53.248 0 96.376471-50.778353 96.376471-113.362824v-340.148706c0-62.644706-43.128471-113.423059-96.376471-113.423059H752.941176z m0 0v60.235294h144.564706c17.588706 0 36.141176 21.865412 36.141177 53.187765V523.264c0 31.322353-18.552471 53.127529-36.141177 53.127529H126.494118c-17.588706 0-36.141176-21.805176-36.141177-53.127529v-340.148706c0-31.322353 18.552471-53.187765 36.141177-53.187765H271.058824v-60.235294H126.494118c-53.248 0-96.376471 50.778353-96.376471 113.423059V523.264c0 62.644706 43.128471 113.362824 96.376471 113.362824h771.011764c53.248 0 96.376471-50.778353 96.376471-113.362824v-340.148706c0-62.644706-43.128471-113.423059-96.376471-113.423059H752.941176zM304.549647 50.236235a60.235294 60.235294 0 0 1 60.235294-60.235294h294.430118a60.235294 60.235294 0 0 1 60.235294 60.235294v271.058824H304.549647v-271.058824z m-60.235294 331.294118h535.371294v-331.294118a120.470588 120.470588 0 0 0-120.470588-120.470588H364.784941a120.470588 120.470588 0 0 0-120.470588 120.470588v331.294118zM197.451294 323.041882a30.117647 30.117647 0 1 0 0 60.235294h629.097412a30.117647 30.117647 0 1 0 0-60.235294H197.451294zM404.901647 124.626824a30.117647 30.117647 0 0 0 0 60.235294h214.196706a30.117647 30.117647 0 1 0 0-60.235294H404.901647zM304.549647 640.180706V771.252706a60.235294 60.235294 0 0 0 60.235294 60.235294h294.430118a60.235294 60.235294 0 0 0 60.235294-60.235294v-131.072H304.549647z m-60.235294-60.235294h535.371294V771.252706a120.470588 120.470588 0 0 1-120.470588 120.470588H364.784941a120.470588 120.470588 0 0 1-120.470588-120.470588v-191.307294zM404.901647 691.561412a30.117647 30.117647 0 0 0 0 60.235294h214.196706a30.117647 30.117647 0 1 0 0-60.235294H404.901647z"  horiz-adv-x="1024" />

    
    <glyph glyph-name="shezhi3" unicode="&#59270;" d="M950.097997 123.082L702.295687 366.614062c58.649654 132.018515 31.095143 286.114818-71.570916 389.510493C565.051157 822.190095 477.780709 858.592093 384.918927 858.592093c-38.314554 0-76.09392-6.318903-112.245209-18.67837-19.40901-6.600312-33.790526-22.639581-38.508982-42.891794-4.859671-20.812983 1.15224-42.274741 16.124204-57.38485l148.448686-149.434129-15.813119-79.631483-78.762697-15.842794-148.253236 149.236631c-11.545941 11.628828-26.909829 17.977407-43.258136 17.977407-25.870152 0-48.760443-16.26542-56.906968-40.449167-47.159995-139.714786-1.320062-295.439165 114.123996-387.572354 60.110933-48.003198 136.344022-74.435144 214.658512-74.435145 49.015246 0 97.693824 10.365048 141.961962 30.110725L774.231922-53.935292c23.511436-23.622976 54.774401-36.656801 88.058393-36.656801 33.286037 0 64.549003 13.033825 88.060438 36.714106 48.366471 48.705184 48.366471 127.972371-0.252756 176.959987z m-40.590382-136.457609c-25.2531-25.504833-68.986049-25.673678-94.68838 0.252757l-277.376824 272.577527-18.538178-9.719343c-41.011984-21.374777-87.471016-32.751873-134.378255-32.751873-65.307271 0-128.818643 21.965224-178.759979 61.851573-96.56819 77.105968-134.966655 207.438078-95.50293 324.288156l4.804413 0.279362 170.105896-171.229484 146.680417 29.549954 29.326874 147.298493-170.024032 171.202878c-1.348715 1.321086-1.123588 3.034097 0.167822 5.28025 30.139377 10.309789 61.628493 15.533757 93.594468 15.533757 77.412959 0 150.192397-30.335852 204.964752-85.44692 90.052812-90.698517 110.95073-228.053564 52.02069-341.842939l-9.773578-18.876892 277.377847-272.574457c26.17919-26.348035 26.17919-69.296111-0.001023-95.672799z"  horiz-adv-x="1024" />

    
    <glyph glyph-name="saomiaoshijuan" unicode="&#58971;" d="M703.956003 832.004a31.998 31.998 0 1 0 0 63.996h186.932316C964.419724 896 1023.936004 836.48372 1023.936004 762.952315V576.019999a31.998 31.998 0 1 0-63.996 0V762.952315C959.940004 801.093932 929.029936 832.004 890.888319 832.004H703.956003z m255.984001-624.792951a31.998 31.998 0 1 0 63.996 0v-202.099368C1023.936004-68.419724 964.419724-127.936004 890.888319-127.936004h-126.328104a31.998 31.998 0 1 0 0 63.996h126.328104c38.141616 0 69.051684 30.910068 69.051685 69.051685v202.099368zM335.147053-63.940004a31.998 31.998 0 1 0 0-63.996H133.047685A133.047685 133.047685 0 0 0 0 5.111681V192.043997a31.998 31.998 0 1 0 63.996 0v-186.932316C63.996-33.029936 94.906068-63.940004 133.047685-63.940004h202.099368zM63.996 576.019999a31.998 31.998 0 0 0-63.996 0V762.952315C0 836.48372 59.51628 896 133.047685 896H319.980001a31.998 31.998 0 0 0 0-63.996H133.047685C94.906068 832.004 63.996 801.093932 63.996 762.952315V576.019999zM159.990001 352.033998a31.998 31.998 0 0 0 0 63.996h703.956002a31.998 31.998 0 1 0 0-63.996h-703.956002z"  horiz-adv-x="1024" />

    
    <glyph glyph-name="icon-test1" unicode="&#58890;" d="M875.245268-128H174.129951c-46.254829 0-83.818146 37.66322-83.818146 83.818146V803.190634C90.311805 849.345561 127.875122 887.00878 174.129951 887.00878h701.21522c46.254829 0 83.818146-37.66322 83.818146-83.818146V-44.081951000000004c-0.099902-46.254829-37.66322-83.918049-83.918049-83.918049zM174.129951 847.047805c-24.17639 0-43.857171-19.68078-43.857171-43.857171V-44.081951000000004c0-24.17639 19.68078-43.857171 43.857171-43.857171h701.21522c24.17639 0 43.857171 19.68078 43.85717 43.857171V803.190634c0 24.17639-19.68078 43.857171-43.85717 43.857171H174.129951zM402.20722 468.617366H277.928585v33.067707h41.459513V629.0606829999999l-42.658342-9.590634v34.066731l84.217756 17.782635v-169.534439H402.107317v-33.16761z m0 0M405.504 465.320585h-130.872195v39.661269h41.459512V624.9646829999999l-42.658341-9.590634v40.96l90.811317 19.181268v-170.333658h41.159805v-39.861074zM281.225366 471.814244h117.685073V498.388293h-41.159805V667.2234149999999l-77.624195-16.284098v-27.273366l42.658341 9.590634v-134.76839H281.225366v-26.673951z m166.037854 93.009171c0 34.466341 6.293854 60.840585 19.081365 79.022829 12.587707 18.182244 31.069659 27.273366 55.046244 27.273366 45.85522 0 68.632976-33.866927 68.632976-101.500878 0-33.267512-6.193951-59.142244-18.681756-77.124683-12.387902-18.182244-30.370341-27.273366-53.847415-27.273366-46.954146-0.199805-70.231415 33.067707-70.231414 99.602732z m41.959024 0.999024c0-45.955122 9.890341-68.83278 29.471219-68.83278 19.181268 0 28.971707 23.676878 28.971708 70.930731 0 47.553561-9.390829 71.230439-28.172488 71.230439-20.280195 0-30.270439-24.476098-30.270439-73.32839z m0 0M517.095024 461.824c-19.980488 0-36.164683 6.094049-48.053073 17.782634-16.683707 16.583805-25.175415 45.255805-25.175414 85.216781 0 34.965854 6.593561 62.23922 19.780683 80.821073 13.187122 18.981463 32.668098 28.672 57.643707 28.672 47.653463 0 71.929756-35.265561 71.929756-104.797659 0-33.966829-6.493659-60.540878-19.181268-79.022829-12.887415-18.981463-31.96878-28.672-56.644683-28.672h-0.299708z m4.295805 205.898927c-22.777756 0-40.460488-8.691512-52.248975-25.774829-12.288-17.482927-18.581854-43.457561-18.581854-77.124683 0-38.062829 7.79239-65.036488 23.177366-80.421464 10.489756-10.489756 25.175415-15.884488 43.457561-15.884488h0.299707c22.278244 0 39.461463 8.691512 51.050146 25.77483 11.988293 17.383024 18.182244 42.658341 18.182244 75.326439-0.099902 66.035512-21.379122 98.104195-65.336195 98.104195z m-2.697366-174.030049c-21.678829 0-32.768 24.17639-32.768 72.129561 0 51.649561 10.889366 76.625171 33.56722 76.625171 21.179317 0 31.469268-24.376195 31.469268-74.52722 0-49.152-10.789463-74.227512-32.268488-74.227512z m0.79922 142.161171c-17.882537 0-26.973659-23.576976-26.973659-70.03161 0-43.457561 8.791415-65.536 26.174439-65.536 16.983415 0 25.674927 22.777756 25.674927 67.633951 0 45.056-8.391805 67.933659-24.875707 67.933659z m0 0M630.084683 564.8234150000001c0 34.466341 6.293854 60.840585 19.081366 79.022829 12.587707 18.182244 31.069659 27.273366 55.046244 27.273366 45.85522 0 68.632976-33.866927 68.632975-101.500878 0-33.267512-6.193951-59.142244-18.681756-77.124683-12.387902-18.182244-30.370341-27.273366-53.847414-27.273366-46.754341-0.199805-70.231415 33.067707-70.231415 99.602732z m41.959024 0.999024c0-45.955122 9.890341-68.83278 29.47122-68.83278 19.181268 0 28.971707 23.676878 28.971707 70.930731 0 47.553561-9.390829 71.230439-28.172488 71.230439-20.08039 0-30.270439-24.476098-30.270439-73.32839z m0 0M700.01639 461.824c-19.980488 0-36.06478 6.094049-47.95317 17.882537-16.683707 16.683707-25.175415 45.255805-25.175415 85.016975 0 34.965854 6.593561 62.23922 19.780683 80.821073 13.187122 18.981463 32.668098 28.672 57.643707 28.672 47.653463 0 71.829854-35.265561 71.829854-104.797658 0-33.966829-6.493659-60.540878-19.181269-79.022829-12.887415-18.981463-31.96878-28.672-56.644682-28.672h-0.299708z m4.195903 205.898927c-22.777756 0-40.460488-8.691512-52.248976-25.774829-12.288-17.482927-18.581854-43.457561-18.581854-77.124683 0-37.863024 7.79239-65.036488 23.277269-80.421464 10.689561-10.489756 25.175415-15.884488 43.357658-15.884488h0.299708c22.278244 0 39.461463 8.691512 51.050146 25.77483 11.988293 17.383024 18.182244 42.658341 18.182244 75.326439-0.099902 66.035512-21.379122 98.104195-65.336195 98.104195z m-2.597464-174.030049c-21.678829 0-32.768 24.17639-32.768 72.129561 0 50.850341 11.288976 76.625171 33.56722 76.625171 21.179317 0 31.469268-24.376195 31.469268-74.52722-0.099902-49.152-10.889366-74.227512-32.268488-74.227512z m0.699317 142.161171c-17.882537 0-26.973659-23.576976-26.973658-70.03161 0-43.457561 8.791415-65.536 26.174439-65.536 16.983415 0 25.674927 22.777756 25.674927 67.633951 0 45.056-8.391805 67.933659-24.875708 67.933659z m0 0M272.433951 143.03531699999996h252.653269v-54.546732H272.433951zM777.44078 325.05756099999996H272.633756v-54.546732h504.906927z"  horiz-adv-x="1024" />

    
    <glyph glyph-name="quanbukaoshi" unicode="&#59013;" d="M196.16 202.496a47.168 47.168 0 0 1 0-94.144 47.104 47.104 0 0 1 0 94.08zM832.128 360.384V660.736a40.32 40.32 0 0 1-10.88 27.712L624.832 879.808C617.92 887.168 608.448 896 598.592 896H275.968C240 896 196.864 860.544 196.864 822.656v-462.272H83.84c-41.024 0-74.496-35.2-74.496-78.4v-331.52C9.408-92.864 42.88-128 83.904-128h860.416c41.088 0 74.496 35.2 74.496 78.464v331.52c0 43.2-33.408 78.4-74.496 78.4h-112.192z m100.992-425.664H90.88a26.88 26.88 0 0 0-26.88 26.752V271.488a26.88 26.88 0 0 0 26.88 26.752h842.24a26.88 26.88 0 0 0 26.816-26.752v-310.016c0-14.72-18.368-26.752-33.152-26.752h6.336zM589.248 832.192V698.88c0-20.352 16.64-36.928 37.248-36.928h144.384v-303.104H257.344V813.696a18.56 18.56 0 0 0 18.56 18.496h313.344zM332.8 480a32 32 0 0 0 0 64h358.4a32 32 0 1 0 0-64H332.8zM332.8 633.6a32 32 0 0 0 0 64h153.6a32 32 0 0 0 0-64H332.8z"  horiz-adv-x="1024" />

    
    <glyph glyph-name="shijuanpigai" unicode="&#58900;" d="M610.7-112.10000000000002H200c-86.4 0-156.7 70.3-156.7 156.7V728.3C43.3 814.7 113.6 885 200 885h615.3C901.7 885 972 814.7 972 728.3v-362h-40v362C932 792.6 879.6 845 815.3 845H200c-64.4 0-116.7-52.4-116.7-116.7v-683.6C83.3-19.700000000000045 135.7-72 200-72h410.7v-40.1zM787.8-88.39999999999998c-7.5-8.1-20.2-8.6-28.3-1.1L627.3 32.700000000000045c-8.1 7.5-8.6 20.2-1.1 28.3 7.5 8.1 20.2 8.6 28.3 1.1l132.2-122.2c8.1-7.5 8.6-20.2 1.1-28.3zM968.5 244.29999999999995L805.1-76.5c-5-9.8-17.1-13.7-26.9-8.7-9.8 5-13.7 17.1-8.7 26.9l163.4 320.8c5 9.8 17.1 13.7 26.9 8.7 9.8-5 13.7-17.1 8.7-26.9zM590.4 344H442.6c-11 0-20 9-20 20s9 20 20 20h147.8c11 0 20-9 20-20s-9-20-20-20zM531 537L399.8 244.89999999999998c-4.5-10-16.4-14.6-26.4-10-10 4.5-14.6 16.4-10 26.4l131.2 292.1c4.5 10 16.4 14.6 26.4 10 10-4.5 14.5-16.4 10-26.4zM536.5 559.6l113.7-299.3c3.9-10.3-1.3-21.9-11.6-25.8-10.3-3.9-21.9 1.3-25.8 11.6L499.1 545.3c-3.9 10.3 1.3 21.9 11.6 25.8 10.2 4 21.8-1.3 25.8-11.5z"  horiz-adv-x="1024" />

    
    <glyph glyph-name="kaoshifenxi" unicode="&#59016;" d="M297.803294-73.065412a30.117647 30.117647 0 1 0 0 60.235294h428.393412a30.117647 30.117647 0 0 0 0-60.235294H297.803294zM150.588235 835.764706a60.235294 60.235294 0 0 1-60.235294-60.235294v-556.272941a60.235294 60.235294 0 0 1 60.235294-60.235295h722.82353a60.235294 60.235294 0 0 1 60.235294 60.235295V775.529412a60.235294 60.235294 0 0 1-60.235294 60.235294H150.588235z m0 60.235294h722.82353a120.470588 120.470588 0 0 0 120.470588-120.470588v-556.272941a120.470588 120.470588 0 0 0-120.470588-120.470589H150.588235a120.470588 120.470588 0 0 0-120.470588 120.470589V775.529412a120.470588 120.470588 0 0 0 120.470588 120.470588zM403.275294 513.686588L237.748706 363.52a30.117647 30.117647 0 0 0-40.478118 44.574118l178.657883 162.153411a42.164706 42.164706 0 0 0 59.030588-2.228705l129.385412-137.09553 219.196235 257.867294a30.117647 30.117647 0 0 0 45.899294-39.03247L597.172706 376.530824c-1.505882-1.807059-1.505882-1.807059-3.132235-3.373177a42.164706 42.164706 0 0 0-59.632942 1.686588L403.275294 513.686588z"  horiz-adv-x="1024" />

    
    <glyph glyph-name="kaoshizhongxinoff" unicode="&#58901;" d="M461.435 804.091l-24.216-41.943 317.34-183.216 24.215 41.943-317.34 183.216z m-3.593 55.711L828.818 645.62c7.406-4.276 9.943-13.745 5.667-21.151l-55.183-95.58c-4.275-7.406-13.745-9.943-21.15-5.667L387.174 737.404c-7.406 4.276-9.943 13.745-5.668 21.151l55.184 95.58c4.275 7.406 13.745 9.943 21.15 5.667zM240.934 369.866c40.726 70.539 130.923 94.707 201.461 53.981 70.538-40.725 94.707-130.922 53.981-201.46-30.267-52.426-88.757-80.166-146.897-72.528l-60.27-104.389 305.846 130.57c0.305 2.053 0.189 3.253 0.089 4.342-10.822 117.434 10.21 223.538 65.941 328.868 0.156 0.292-42.156 25.238-126.937 74.838L406.563 657.75c-62.051-99.582-142.615-170.813-248.248-220.307a516.206 516.206 0 0 0-7.269-3.326c-0.193-0.086 12.843-109.521 39.109-328.304l59.524 103.1c-34.017 46.391-38.431 109.534-8.745 160.953zM641.4 184.645c0.087-0.95 0.19-2.02 0.31-3.207 2.069-20.527-9.44-40.017-28.415-48.118L256.282-19.094c-14.171-6.05-30.564 0.534-36.614 14.705a27.9 27.9 0 0 0 1.497 24.905L326.34 202.682l17.096-4.418c43.56-11.258 89.875 7.79 112.714 47.348 27.898 48.321 11.342 110.11-36.98 138.008-48.32 27.898-110.109 11.342-138.007-36.98-22.391-38.782-16.46-87.317 13.654-119.515l11.757-12.57-105.458-182.66c-7.437-12.882-23.91-17.295-36.79-9.858a26.933 26.933 0 0 0-13.273 20.098l-46.545 385.668c-2.474 20.496 8.666 40.219 27.496 48.682 2.595 1.167 4.8 2.175 6.603 3.02C236.512 525.38 310.41 590.868 367.794 683.37c12.83 20.682 39.763 27.444 60.841 15.274l128.812-74.37 126.785-73.817c21.928-12.766 29.827-40.587 17.89-62.968-51.483-97.32-70.718-194.38-60.723-302.843zM387.51-18.637V-4.11c0 8.55 6.933 15.483 15.484 15.483h426.362c8.552 0 15.484-6.932 15.484-15.483v-14.527c0-8.551-6.932-15.484-15.484-15.484H402.994c-8.551 0-15.484 6.933-15.484 15.484z"  horiz-adv-x="1024" />

    
    <glyph glyph-name="kaoshizhongxinon" unicode="&#58909;" d="M481.454 830.001l357.044-206.14c7.127-4.115 9.57-13.229 5.454-20.356l-53.11-91.99c-4.115-7.128-13.23-9.57-20.357-5.455L413.441 712.2c-7.128 4.114-9.57 13.228-5.455 20.356l53.11 91.99c4.116 7.128 13.23 9.57 20.358 5.455z m175.078-671.352c0.077-0.927 0.169-1.97 0.276-3.127 1.841-20.014-9.438-39.122-27.846-47.172L282.594-43.127c-13.749-6.013-29.548 0.285-35.289 14.067-3.27 7.852-2.663 16.86 1.64 24.313l103.096 178.568 16.497-4.18c42.031-10.65 86.959 8.295 109.346 47.071 27.348 47.367 11.816 107.532-34.69 134.382-46.507 26.851-106.377 10.22-133.725-37.147-21.948-38.017-16.588-85.331 12.281-116.518l11.272-12.176-103.375-179.05c-7.29-12.628-23.251-17.061-35.65-9.903-7.064 4.078-11.76 11.306-12.678 19.508l-42.03 375.975c-2.235 19.98 8.688 39.312 26.96 47.716a462.516 462.516 0 0 1 6.408 2.998c95.018 45.518 166.974 109.99 223.172 200.696 12.565 20.28 38.658 27.085 58.945 15.373l123.974-71.577 122.019-71.053c21.103-12.289 28.526-39.375 16.813-61.307-50.53-95.36-69.876-190.22-61.048-295.98zM419.495-48.223v14.8c0 8.714 7.064 15.778 15.777 15.778H869.7c8.713 0 15.777-7.064 15.777-15.777v-14.801c0-8.714-7.064-15.777-15.777-15.777h-434.43c-8.712 0-15.776 7.063-15.776 15.777z"  horiz-adv-x="1024" />

    
    <glyph glyph-name="shezhi4" unicode="&#58990;" d="M709.120628 727.03672c56.214584-33.217708 126.482813-34.495313 183.975001-3.832812 45.99375-51.104167 80.489063-112.429167 102.208334-177.58698-89.432292-56.214584-114.984376-175.031772-58.769792-264.464064 15.33125-24.274479 35.772917-43.438542 58.769792-58.769792-11.498438-33.217708-25.552083-63.880209-42.160938-94.542709-16.608854-29.384896-37.050521-57.492188-60.047396-83.044271-93.265105 48.548959-209.527084 12.776042-258.076043-80.489063-12.776042-25.552083-20.441667-52.381771-21.719271-81.766667a500.820836 500.820836 0 0 0-204.416667 0c-3.832813 106.041146-93.265105 187.807813-198.028647 183.975001-28.107292-1.277604-56.214584-8.943229-81.766667-21.719271-45.99375 51.104167-80.489063 112.429167-102.208334 177.58698C116.312292 278.597656 143.14198 396.13724 86.927396 485.569532c-15.33125 24.274479-35.772917 44.716146-58.769792 60.047396 10.220833 33.217708 24.274479 63.880209 42.160938 93.265104 16.608854 29.384896 37.050521 57.492188 60.047396 84.321876 93.265105-48.548959 209.527084-12.776042 258.076043 80.489063 12.776042 25.552083 20.441667 52.381771 21.719271 81.766667a500.820836 500.820836 0 0 0 204.416667 0c2.555208-66.435417 38.328125-126.482813 94.542709-158.422918zM511.091981 191.720572c-106.041146 0-191.640626 85.59948-191.640625 191.640626s85.59948 191.640626 191.640625 191.640626 191.640626-85.59948 191.640626-191.640626-85.59948-191.640626-191.640626-191.640626z m0 332.177085c-77.933855 0-140.536459-62.602604-140.536459-140.536459s62.602604-140.536459 140.536459-140.536459 140.536459 62.602604 140.536459 140.536459-62.602604 140.536459-140.536459 140.536459z"  horiz-adv-x="1024" />

    
    <glyph glyph-name="zaixiankaoshi" unicode="&#58913;" d="M512.147294 709.508871A325.518248 325.518248 0 1 1 837.665543 383.990622 325.518248 325.518248 0 0 1 512.147294 709.508871z m9.808663-78.199831a19.509537 19.509537 0 0 0 27.916962 6.952294l68.283381-39.558013a19.186175 19.186175 0 0 0 6.8984-26.946874l-19.779006-33.6297-101.913081 59.283124z m-109.835462-421.449123l-67.2594-37.725625a20.048475 20.048475 0 0 0-29.695456 16.81485l-0.970087 77.17585a18.862812 18.862812 0 0 0 2.964156 9.862556l175.100793 303.906855 102.883168-59.283125L420.042876 216.919998a26.623512 26.623512 0 0 0-7.922381-7.060081z m278.037855-0.970087H531.872407a19.779006 19.779006 0 1 0 0 39.558012H689.996669a19.779006 19.779006 0 0 0 0-39.558012z m0 79.169918h-98.948925a19.779006 19.779006 0 0 0 0 39.558012H689.996669a19.779006 19.779006 0 0 0 0-39.558012zM512.147294-128A512.583454 512.583454 0 0 0 0.156672 397.248485C7.378434 675.394127 238.42094 898.35257 516.674369 895.981245a508.541423 508.541423 0 0 0 277.175555-84.397612 16.545381 16.545381 0 0 0 4.3115-23.335994 16.491487 16.491487 0 0 0-22.581481-4.203712 477.983666 477.983666 0 1 1 170.681506-197.358912 16.437594 16.437594 0 0 0 7.383443 21.5575 16.168125 16.168125 0 0 0 22.4198-7.652912A506.06231 506.06231 0 0 0 1024.137917 383.990622a512.583454 512.583454 0 0 0-511.990623-511.990622zM927.183061 672.645546m-18.647237 0a18.647237 18.647237 0 1 1 37.294475 0 18.647237 18.647237 0 1 1-37.294475 0Z"  horiz-adv-x="1024" />

    
    <glyph glyph-name="kaoshi1" unicode="&#58892;" d="M814.836 515.283c13.807 0 25 11.193 25 25v141.14c0 12.741-9.581 23.443-22.244 24.848-3.328 0.368-82.567 8.721-175.057-18.85-49.022-14.615-107.097-50.455-132.839-67.3-26.89 17.513-82.923 51.708-130.879 66.006-92.487 27.571-171.728 19.217-175.055 18.849-12.663-1.405-22.244-12.107-22.244-24.848v-139.845c0-13.807 11.193-25 25-25s25 11.193 25 25V656.341c27.719 0.405 78.121-1.765 133.014-18.13 39.17-11.679 91.388-42.508 121.144-62.113v-444.535c-27.957 17.152-67.228 38.303-106.929 50.01-55.999 16.516-114.365 19.439-147.229 19.541V323.726c0 13.808-11.193 25-25 25s-25-11.192-25-25v-148.171a25.005 25.005 0 0 1 7.885-18.224 25.037 25.037 0 0 1 18.682-6.728c0.814 0.052 82.41 4.868 156.52-16.988 63.899-18.842 130.411-68.317 131.065-68.808a24.987 24.987 0 0 1 15.009-5.005c3.81 0 7.638 0.87 11.174 2.638a24.971 24.971 0 0 1 8.623 7.123c16.423 11.639 72.249 49.417 126.273 65.349 73.808 21.766 155.717 17.039 156.521 16.987a25.045 25.045 0 0 1 18.682 6.729 25 25 0 0 1 7.885 18.223V323.725c0 13.808-11.193 25-25 25-13.808 0-25-11.192-25-25V202.41c-32.864-0.103-91.231-3.026-147.229-19.54-39.627-11.686-78.941-32.866-106.93-50.033V577.341c22.821 14.973 77.732 49.222 121.144 62.164 54.905 16.368 105.318 18.535 133.016 18.132v-117.354c-0.002-13.807 11.19-25 24.998-25zM768.098 427.729c0-32.028 28.468-57.993 63.584-57.993V485.721c-35.117 0-63.584-25.964-63.584-57.992M250.227 427.729c0 32.028-28.469 57.992-63.585 57.992v-115.985c35.116-0.001 63.585 25.964 63.585 57.993"  horiz-adv-x="1024" />

    
    <glyph glyph-name="tongjitu" unicode="&#58883;" d="M475.429 822.857C212.822 822.857 0 610 0 347.43S212.822-128 475.429-128C738-128 950.857 84.857 950.857 347.429H475.43V822.857zM871.07 274.286c-34.5-187.036-198.786-329.143-395.642-329.143-221.823 0-402.286 180.463-402.286 402.286 0 196.856 142.107 361.142 329.143 395.624V274.286H871.07zM548.571 896v-475.429H1024C1024 683.143 811.143 896 548.571 896z m73.143-79.804c163.321-30.106 292.358-159.177 322.5-322.482h-322.5V816.196z"  horiz-adv-x="1024" />

    
    <glyph glyph-name="monishijuan" unicode="&#58895;" d="M145.381303 37.964877a26.799669 26.799669 0 0 0-20.822601 9.839879 509.410855 509.410855 0 0 0-42.51376 59.70212 27.051095 27.051095 0 0 0 46.205143 28.136795 448.57732 448.57732 0 0 1 38.090959-53.405055 27.165379 27.165379 0 0 0-3.542814-38.090958 28.125367 28.125367 0 0 0-17.382642-6.171352z m0 0M511.959635-127.998789a508.622293 508.622293 0 0 0-295.059215 93.541703 27.005381 27.005381 0 0 0 31.108187 44.148026 455.331522 455.331522 0 0 1 263.996742-83.598968c252.568311 0 458.097203 205.506035 458.097202 458.017204S764.516517 842.126379 511.959635 842.126379 53.988145 636.494632 53.988145 383.994891a455.880087 455.880087 0 0 1 18.42263-128.775553 27.056809 27.056809 0 0 0-51.930788-15.211241A512.987954 512.987954 0 0 0 0.00024 384.00632c0 282.3508 229.71145 511.99368 512.073679 511.99368s512.073679-229.64288 512.073679-511.99368-229.780021-511.99368-512.187963-511.99368z m0 0M744.779618 658.825785h-99.713055a68.913435 68.913435 0 0 1-64.684916 45.713721H443.183341a68.867721 68.867721 0 0 1-64.627774-45.588009l-99.781625-0.148569a41.57663 41.57663 0 0 1-41.508059-41.416632v-511.730826a41.57663 41.57663 0 0 1 41.462345-41.405203h466.05139a41.57663 41.57663 0 0 1 41.462345 41.450917V617.386296a41.57663 41.57663 0 0 1-41.462345 41.450917z m-324.567422-22.856861a22.856861 22.856861 0 0 0 22.856861 22.856861h137.31259a22.856861 22.856861 0 0 0 0-45.713722H443.183341a22.856861 22.856861 0 0 0-22.856861 22.856861z m320.281761-496.942437a29.165354 29.165354 0 0 0-29.096784-29.062499H312.110673a29.165354 29.165354 0 0 0-29.096784 29.085356V583.992423a29.176783 29.176783 0 0 0 29.096784 29.096783l66.284896 0.137142a68.902007 68.902007 0 0 1 64.787772-45.885148h137.198306a68.913435 68.913435 0 0 1 64.684916 45.713721h66.410609A29.165354 29.165354 0 0 0 740.562527 583.958137v-444.93165z m0 0M671.866232 521.604621h-320.224618a22.856861 22.856861 0 1 1 0-45.713721h320.224618a22.856861 22.856861 0 1 1 0 45.713721z m-68.570582-114.352874a22.93686 22.93686 0 0 1-22.856861 22.856861h-228.797175a22.856861 22.856861 0 1 1 0-45.713721h228.740033a22.948288 22.948288 0 0 1 22.856861 22.85686z m36.26241-212.260237a725.088193 725.088193 0 0 1-248.316935-53.713622c-1.714265 0-3.428529-3.508528-3.428529-5.222793a5.542789 5.542789 0 0 1 5.142793-5.222793l-0.06857 0.14857a37.565251 37.565251 0 0 1 18.799768 8.697035 1213.985015 1213.985015 0 0 0 250.111198 51.953645v3.359958c-6.857058 0-15.371239-1.714265-22.239725-1.714264z m-51.233654 34.662429z m46.102289 138.512576a124.695604 124.695604 0 0 1-56.387876-41.530915 101.770172 101.770172 0 0 1-22.251154-65.816331c0-8.651322 5.142794-15.588379 10.285588-22.514008s13.576975-8.651322 22.079727-8.651322c42.822329 12.079851 73.701947 55.382174 71.907684 103.850147a18.70834 18.70834 0 0 1-11.999852 19.00548c1.714265 0 3.428529 1.714265 5.142794 3.4971a21.199738 21.199738 0 0 1-18.799768 12.159849z m7.074198-38.170957a121.598499 121.598499 0 0 0-20.651174-48.456545l-17.142645-19.005479a43.565177 43.565177 0 0 0-20.651174-13.874115c-5.142794-1.702836-6.857058 10.434157-6.857058 13.874115a92.821711 92.821711 0 0 0 44.570878 72.604818c0-1.714265 0-3.4971 1.714265-3.4971a51.359366 51.359366 0 0 0 12.01128 8.639893l0.21714 0.079999c5.142794-1.714265 10.285587-5.142794 6.857058-10.365586zM379.184131 205.208527c0-1.714265 1.714265-1.714265 3.428529-1.714265l1.714265 1.714265v1.714265c0 1.714265-1.714265 5.222793-1.714265 6.937057a159.152321 159.152321 0 0 0 17.142646 55.382173c23.999704 55.393602 23.999704 55.393602 23.999703 60.570681a18.079777 18.079777 0 0 1-10.285587 12.148422 128.36413 128.36413 0 0 1-32.525313-20.571175 10.902723 10.902723 0 0 1-8.571323-10.434157c0-1.714265 0-5.211364 1.714265-5.211364a6.468492 6.468492 0 0 1 5.142794 1.714264l18.799768 8.651322-0.068571-0.148569c-10.285587-19.00548-20.571175-36.376694-27.428233-55.382174a113.770024 113.770024 0 0 1-8.571323-41.599486 16.776936 16.776936 0 0 1 17.222645-13.714117z m164.455113 138.649717a21.199738 21.199738 0 0 1-18.799768 12.148422 124.158467 124.158467 0 0 1-56.513588-41.473774 101.770172 101.770172 0 0 1-22.228297-65.816331 28.136796 28.136796 0 0 1 10.285587-22.514007c5.142794-6.937057 13.714116-8.651322 22.228297-8.651322a95.770246 95.770246 0 0 1 70.239133 100.410189l-0.068571-0.079999a34.605287 34.605287 0 0 1-10.285587 22.514008c1.702836-0.068571 3.428529 1.714265 5.142794 3.428529z m-11.79414-25.896823a121.849924 121.849924 0 0 0-20.662602-48.456545l-17.142646-19.00548a43.770888 43.770888 0 0 0-20.662602-13.794115c-5.142794-1.714265-6.857058 10.365586-6.857058 13.794115a92.741712 92.741712 0 0 0 44.570878 72.753388c0-1.714265 0-3.508528 1.725693-3.508528a50.845087 50.845087 0 0 0 12.01128 8.651322l0.205712-0.068571c5.154222-1.714265 10.285587-5.211364 6.857058-10.365586z m107.712956-105.552983v3.428529c-6.857058 0-13.714116-1.714265-22.228297-1.714264v1.714264a725.099621 725.099621 0 0 1-248.316935-53.713622l-0.079999 0.079999-3.428529-3.508529c0-3.4971 1.714265-5.211364 3.428529-5.211364h1.725693a83.427542 83.427542 0 0 1 18.811196 6.914201 1208.819364 1208.819364 0 0 0 250.088342 51.965072z m0 0"  horiz-adv-x="1024" />

    
    <glyph glyph-name="shuangsechangyongtubiao-" unicode="&#58885;" d="M241 47h-32c-17.6 0-32 14.4-32 32V687c0 17.6 14.4 32 32 32h528c17.6 0 32-14.4 32-32v-32c0-17.7 14.3-32 32-32s32 14.3 32 32v32c0 52.8-43.2 96-96 96H209c-52.8 0-96-43.2-96-96v-608c0-52.8 43.2-96 96-96h32c17.7 0 32 14.3 32 32s-14.3 32-32 32zM737.9 312c40.7 34.1 65.8 86.3 62.9 144.2-4.8 92.7-82.6 166.6-175.5 166.8C528 623.2 449 544.3 449 447c0-54.2 24.5-102.7 63.1-135-92.3-39.4-159.8-125.5-172.8-228.6-2.4-19.3 12.3-36.4 31.7-36.4 16.2 0 29.7 12.2 31.8 28.2C416.7 185.5 511.1 271 625 271s208.3-85.5 222.2-195.8c2-16.1 15.5-28.2 31.8-28.2 19.4 0 34.2 17.1 31.7 36.4-13 103.1-80.5 189.2-172.8 228.6zM513 447c0 61.8 50.2 112 112 112s112-50.2 112-112-50.2-112-112-112-112 50.2-112 112zM353 559h-80c-17.6 0-32 14.4-32 32s14.4 32 32 32h80c17.6 0 32-14.4 32-32s-14.4-32-32-32zM353 415h-80c-17.6 0-32 14.4-32 32s14.4 32 32 32h80c17.6 0 32-14.4 32-32s-14.4-32-32-32z"  horiz-adv-x="1024" />

    
    <glyph glyph-name="jiaoliu1" unicode="&#59262;" d="M1078.57868-122.80203c-23.390863 0-54.57868 10.395939-88.365482 20.791878-23.390863 7.796954-62.375635 20.791878-72.771574 15.593908-59.77665-20.791878-122.152284-31.187817-187.126903-31.187817-83.167513 0-163.736041 18.192893-233.90863 51.979696-12.994924 5.19797-18.192893 20.791878-12.994923 33.786802 5.19797 12.994924 20.791878 18.192893 33.786802 12.994923 64.974619-31.187817 137.746193-46.781726 213.116751-46.781725 59.77665 0 116.954315 10.395939 171.532995 28.588832 25.989848 10.395939 62.375635-2.598985 106.558375-15.593909 20.791878-7.796954 54.57868-18.192893 70.172589-18.192893 0 10.395939-7.796954 31.187817-10.395939 44.182741-10.395939 38.984772-23.390863 72.771574-2.598985 96.162437 54.57868 59.77665 85.766497 129.949239 85.766498 205.319797 0 75.370558-31.187817 145.543147-85.766498 205.319797-10.395939 10.395939-10.395939 25.989848 0 36.385786 10.395939 10.395939 25.989848 10.395939 36.385787 0 64.974619-70.172589 101.360406-153.340102 101.360406-241.705583 0-85.766497-33.786802-168.93401-96.162436-236.507615 0-10.395939 7.796954-33.786802 10.395939-46.781726 12.994924-41.583756 25.989848-83.167513-5.19797-103.95939-10.395939-7.796954-20.791878-10.395939-33.786802-10.395939zM506.80203 864.812183c262.497462 0 473.015228-184.527919 473.015229-410.639594s-213.116751-410.639594-473.015229-410.639594c-67.573604 0-132.548223 12.994924-192.324873 33.786802-38.984772 15.593909-166.335025-57.177665-200.121827-33.786802-28.588832 20.791878 38.984772 137.746193 15.593909 163.736041-59.77665 70.172589-96.162437 155.939086-96.162437 249.502538C31.187817 680.284264 244.304569 864.812183 506.80203 864.812183zM135.147208 14.944162c-12.994924 0-23.390863 2.598985-33.786802 10.39594-31.187817 20.791878-18.192893 64.974619-5.197969 111.756345 5.19797 18.192893 12.994924 46.781726 12.994923 57.177665C41.583756 267.045685 7.796954 358.010152 7.796954 454.172589 7.796954 695.878173 231.309645 890.80203 506.80203 890.80203S1005.807107 695.878173 1005.807107 454.172589s-223.51269-436.629442-499.005077-436.629442c-70.172589 0-137.746193 12.994924-200.121827 36.385787-10.395939 2.598985-54.57868-10.395939-77.969543-18.192893-36.385787-10.395939-67.573604-20.791878-93.563452-20.791879z m0 51.979696c15.593909 0 51.979695 12.994924 77.969543 20.791878 46.781726 15.593909 85.766497 28.588832 114.35533 18.192893 57.177665-20.791878 119.553299-33.786802 181.928934-33.786802 246.903553 0 447.025381 171.532995 447.025381 384.649747S753.705584 838.822335 506.80203 838.822335 59.77665 667.28934 59.77665 454.172589c0-83.167513 31.187817-163.736041 90.964467-231.309645 20.791878-23.390863 10.395939-59.77665-2.598985-103.959391-5.19797-15.593909-12.994924-41.583756-12.994924-51.979695zM254.700508 498.35533c31.187817 0 54.57868-25.989848 54.57868-57.177665 0-31.187817-25.989848-57.177665-54.57868-57.177665s-54.57868 25.989848-54.578681 57.177665c0 31.187817 23.390863 57.177665 54.578681 57.177665zM506.80203 498.35533c31.187817 0 54.57868-25.989848 54.578681-57.177665 0-31.187817-25.989848-57.177665-54.578681-57.177665s-54.57868 25.989848-54.57868 57.177665c-2.598985 31.187817 23.390863 57.177665 54.57868 57.177665zM758.903553 498.35533c31.187817 0 54.57868-25.989848 54.578681-57.177665 0-31.187817-25.989848-57.177665-54.578681-57.177665s-54.57868 25.989848-54.57868 57.177665c-2.598985 31.187817 23.390863 57.177665 54.57868 57.177665z"  horiz-adv-x="1205" />

    
    <glyph glyph-name="bianjibiaoge" unicode="&#60092;" d="M503.466667 725.333333l243.2-243.2-328.533334-328.533333H174.933333v243.2L503.466667 725.333333zM256 366.933333v-128h128l234.666667 243.2-115.2 119.466667L256 366.933333z m-85.333333-256h128v-85.333333H170.666667v85.333333z m170.666666 0h213.333334v-85.333333H341.333333v85.333333z m256 0h256v-85.333333h-256v85.333333z"  horiz-adv-x="1024" />

    
    <glyph glyph-name="baocun" unicode="&#60093;" d="M426.666667 213.333333v-42.666666h170.666666v42.666666h-170.666666z m-42.666667 85.333334h298.666667v-128h42.666666V477.866667L605.866667 597.333333H298.666667v-426.666666h42.666666v128h42.666667z m260.266667 384L810.666667 516.266667V85.333333H213.333333V682.666667h430.933334zM341.333333 554.666667h85.333334v-170.666667H341.333333V554.666667z"  horiz-adv-x="1024" />

    
    <glyph glyph-name="bianji" unicode="&#60094;" d="M499.2 614.4l243.2-243.2L413.866667 42.666667H170.666667v243.2l328.533333 328.533333z m0-123.733333L256 247.466667V128h119.466667l243.2 243.2-119.466667 119.466667zM614.4 725.333333L853.333333 482.133333l-72.533333-72.533333-243.2 243.2L614.4 725.333333z"  horiz-adv-x="1024" />

    
    <glyph glyph-name="daochu" unicode="&#60095;" d="M712.533333 524.8l-128-128-59.733333 59.733333 128 128L597.333333 640l-42.666666 42.666667h256v-256l-42.666667 42.666666-55.466667 55.466667zM657.066667 640H768v-110.933333V640h-110.933333zM298.666667 597.333333v-426.666666h426.666666v256l85.333334-85.333334v-256H213.333333V682.666667h256l85.333334-85.333334H298.666667z"  horiz-adv-x="1024" />

    
    <glyph glyph-name="daoru" unicode="&#60096;" d="M746.666667 426.666667H554.666667V682.666667l42.666666-42.666667 51.2-51.2L746.666667 682.666667l59.733333-59.733334-98.133333-98.133333 21.333333-21.333333 38.4-34.133334 42.666667-42.666666h-64zM512 682.666667v-85.333334H298.666667v-426.666666h426.666666v213.333333h85.333334v-298.666667H213.333333V682.666667h298.666667z"  horiz-adv-x="1024" />

    
    <glyph glyph-name="suoding" unicode="&#60099;" d="M256 469.333333h512v-426.666666H256V469.333333z m85.333333-85.333333v-256h341.333334v256H341.333333z m0 42.666667H256v42.666666h85.333333V554.666667c0 93.866667 76.8 170.666667 170.666667 170.666666s170.666667-76.8 170.666667-170.666666v-85.333334h85.333333v-42.666666h-170.666667V554.666667c0 46.933333-38.4 85.333333-85.333333 85.333333s-85.333333-38.4-85.333333-85.333333v-128H341.333333z m170.666667-213.333334c-25.6 0-42.666667 17.066667-42.666667 42.666667s17.066667 42.666667 42.666667 42.666667 42.666667-17.066667 42.666667-42.666667-17.066667-42.666667-42.666667-42.666667z"  horiz-adv-x="1024" />

    
    <glyph glyph-name="tianjiafujian" unicode="&#60100;" d="M512 277.333333H256c-93.866667 0-170.666667 76.8-170.666667 170.666667s76.8 170.666667 170.666667 170.666667h435.2c128 0 247.466667-106.666667 247.466667-234.666667s-115.2-234.666667-247.466667-234.666667H341.333333v85.333334h349.866667c81.066667 0 162.133333 68.266667 162.133333 149.333333s-76.8 149.333333-162.133333 149.333333H243.2c-46.933333 0-81.066667-38.4-81.066667-85.333333s34.133333-85.333333 81.066667-85.333333h362.666667c12.8 0 21.333333 12.8 21.333333 21.333333 0 12.8-8.533333 21.333333-21.333333 21.333333H341.333333v85.333334h264.533334c59.733333 0 106.666667-46.933333 106.666666-106.666667s-46.933333-106.666667-106.666666-106.666667H512z"  horiz-adv-x="1024" />

    
    <glyph glyph-name="wenjianjia" unicode="&#60102;" d="M853.333333 597.333333v-512H170.666667V682.666667h221.866666l42.666667-42.666667H853.333333v-42.666667zM256 554.666667v-384h512V554.666667H256z m298.666667-256h170.666666v-85.333334h-170.666666v85.333334z"  horiz-adv-x="1024" />

    
    <glyph glyph-name="cangku_kucun" unicode="&#60104;" d="M640 170.666667v128h128v-128h85.333333v-128h-128v128h-42.666666v-128h-128v128h85.333333z m213.333333 128h-85.333333v51.2l-256 256-256-256V128h256v-85.333333H170.666667v298.666666H128l384 384 384-384h-42.666667v-42.666666z"  horiz-adv-x="1024" />

    
    <glyph glyph-name="cangku_daozhan" unicode="&#60106;" d="M674.133333 128H853.333333v-85.333333h-179.2l46.933334-46.933334-59.733334-59.733333L512 85.333333l149.333333 149.333334 59.733334-59.733334-46.933334-46.933333z m179.2 85.333333h-85.333333v136.533334l-256 256-256-256V128h213.333333v-85.333333H170.666667v298.666666H128l384 384 384-384h-42.666667v-128z m-422.4 213.333334h170.666667v-85.333334h-170.666667v85.333334z"  horiz-adv-x="1024" />

    
    <glyph glyph-name="cangku_kucunshuaxin" unicode="&#60107;" d="M725.333333 298.666667z m21.333334 0c59.733333-8.533333 106.666667-64 106.666666-128 0-17.066667-4.266667-29.866667-8.533333-42.666667h8.533333v-85.333333h-106.666666v89.6c12.8 8.533333 21.333333 21.333333 21.333333 38.4s-8.533333 29.866667-21.333333 38.4V298.666667z m-42.666667-256c-59.733333 8.533333-106.666667 64-106.666667 128 0 17.066667 4.266667 29.866667 8.533334 42.666666H597.333333v85.333334h106.666667v-89.6c-12.8-8.533333-21.333333-21.333333-21.333333-38.4s8.533333-29.866667 21.333333-38.4V42.666667z m149.333333 238.933333c-21.333333 25.6-51.2 42.666667-85.333333 51.2v12.8l-256 256-256-256V128h302.933333c8.533333-34.133333 25.6-64 51.2-85.333333H170.666667v298.666666H128l384 384 384-384h-42.666667v-59.733333z"  horiz-adv-x="1024" />

    
    <glyph glyph-name="guanliyuanrenzheng" unicode="&#60108;" d="M755.2 115.2L896 256l59.733333-59.733333-200.533333-200.533334-119.466667 119.466667 59.733334 59.733333 59.733333-59.733333zM597.333333 128v-85.333333H256v170.666666h4.266667l85.333333 85.333334h375.466667l85.333333-85.333334h-426.666667l-38.4-38.4V128h256z m213.333334 81.066667z m-85.333334 324.266666c0-106.666667-85.333333-192-192-192S341.333333 426.666667 341.333333 533.333333 426.666667 725.333333 533.333333 725.333333 725.333333 640 725.333333 533.333333z m-85.333333 0C640 593.066667 593.066667 640 533.333333 640S426.666667 593.066667 426.666667 533.333333s46.933333-106.666667 106.666666-106.666666S640 473.6 640 533.333333z"  horiz-adv-x="1024" />

    
    <glyph glyph-name="weixiufuwu" unicode="&#60117;" d="M729.6 584.533333l59.733333 59.733334c85.333333-102.4 81.066667-251.733333-12.8-345.6-68.266667-68.266667-162.133333-89.6-247.466666-68.266667l-192-192-59.733334 59.733333-59.733333 59.733334-59.733333 59.733333 192 192c-21.333333 85.333333 0 179.2 68.266666 247.466667 93.866667 93.866667 247.466667 98.133333 345.6 12.8l-59.733333-59.733334L640 554.666667l29.866667-29.866667 59.733333 59.733333z m38.4-89.6l-34.133333-34.133333-59.733334-59.733333L520.533333 554.666667l59.733334 59.733333 34.133333 34.133333c-46.933333 4.266667-102.4-12.8-136.533333-51.2-68.266667-68.266667-68.266667-174.933333 0-243.2s174.933333-68.266667 243.2 0c34.133333 42.666667 51.2 93.866667 46.933333 140.8zM277.333333 217.6l59.733334-59.733333 110.933333 110.933333c-12.8 8.533333-21.333333 17.066667-34.133333 25.6s-21.333333 21.333333-25.6 34.133333l-110.933334-110.933333z"  horiz-adv-x="1024" />

    
    <glyph glyph-name="bofang" unicode="&#60120;" d="M512 42.666667c-187.733333 0-341.333333 153.6-341.333333 341.333333s153.6 341.333333 341.333333 341.333333 341.333333-153.6 341.333333-341.333333-153.6-341.333333-341.333333-341.333333z m0 85.333333c140.8 0 256 115.2 256 256s-115.2 256-256 256-256-115.2-256-256 115.2-256 256-256z m128 256l-213.333333-128V512l213.333333-128z"  horiz-adv-x="1024" />

    
    <glyph glyph-name="gouwu" unicode="&#60121;" d="M384 682.666667h426.666667v-597.333334H213.333333V682.666667h170.666667z m298.666667-85.333334H384v-42.666666h85.333333v-42.666667c0-25.6 17.066667-42.666667 42.666667-42.666667s42.666667 17.066667 42.666667 42.666667V554.666667h85.333333v-42.666667c0-72.533333-55.466667-128-128-128s-128 55.466667-128 128V597.333333H298.666667v-426.666666h426.666666V597.333333h-42.666666z"  horiz-adv-x="1024" />

    
    <glyph glyph-name="danxuanweixuanzhong" unicode="&#60122;" d="M533.333333 42.666667c-196.266667 0-354.133333 153.6-354.133333 341.333333s157.866667 341.333333 354.133333 341.333333 354.133333-153.6 354.133334-341.333333-157.866667-341.333333-354.133334-341.333333z m0 85.333333c149.333333 0 268.8 115.2 268.8 256S682.666667 640 533.333333 640s-268.8-115.2-268.8-256 123.733333-256 268.8-256z"  horiz-adv-x="1024" />

    
    <glyph glyph-name="danxuanxuanzhong" unicode="&#60123;" d="M512 42.666667c-187.733333 0-341.333333 153.6-341.333333 341.333333s153.6 341.333333 341.333333 341.333333 341.333333-153.6 341.333333-341.333333-153.6-341.333333-341.333333-341.333333z m0 85.333333c140.8 0 256 115.2 256 256s-115.2 256-256 256-256-115.2-256-256 115.2-256 256-256z m0 170.666667c-46.933333 0-85.333333 38.4-85.333333 85.333333s38.4 85.333333 85.333333 85.333333 85.333333-38.4 85.333333-85.333333-38.4-85.333333-85.333333-85.333333z"  horiz-adv-x="1024" />

    
    <glyph glyph-name="kefu" unicode="&#60124;" d="M554.666667 128v42.666667h85.333333v-42.666667h85.333333v320C725.333333 554.666667 640 640 533.333333 640S341.333333 554.666667 341.333333 448V42.666667H213.333333v256h42.666667v149.333333C256 601.6 379.733333 725.333333 533.333333 725.333333S810.666667 601.6 810.666667 448V298.666667h42.666666v-256h-298.666666v85.333333z"  horiz-adv-x="1024" />

    
    <glyph glyph-name="yuechi" unicode="&#60134;" d="M418.133333 396.8c-21.333333 34.133333-29.866667 72.533333-29.866666 115.2 0 119.466667 93.866667 213.333333 213.333333 213.333333s213.333333-93.866667 213.333333-213.333333-93.866667-213.333333-213.333333-213.333333c-46.933333 0-85.333333 12.8-123.733333 38.4l-98.133334-98.133334 46.933334-46.933333-59.733334-59.733333-46.933333 46.933333-29.866667-29.866667 46.933334-46.933333L277.333333 42.666667 170.666667 149.333333l247.466666 247.466667zM601.6 640c-72.533333 0-128-55.466667-128-128s55.466667-128 128-128 128 55.466667 128 128-59.733333 128-128 128z"  horiz-adv-x="1024" />

    
    <glyph glyph-name="chexiao" unicode="&#60144;" d="M396.8 695.466667l64-64L384 554.666667h298.666667c119.466667 0 213.333333-93.866667 213.333333-213.333334s-93.866667-213.333333-213.333333-213.333333H298.666667v85.333333h384c72.533333 0 128 55.466667 128 128s-55.466667 128-128 128H170.666667l226.133333 226.133334z"  horiz-adv-x="1024" />

    
    <glyph glyph-name="shouye" unicode="&#60145;" d="M597.333333 128h170.666667v221.866667l-256 256-256-256V128h170.666667v170.666667h170.666666v-170.666667z m298.666667 213.333333h-42.666667v-298.666666H170.666667v298.666666H128l384 384 384-384z"  horiz-adv-x="1024" />

    
    <glyph glyph-name="daohang" unicode="&#60146;" d="M388.266667 226.133333l-256 119.466667L896 733.866667l-388.266667-763.733334-119.466666 256z m64 64l59.733333-128 192 375.466667-375.466667-192 123.733334-55.466667z"  horiz-adv-x="1024" />

    
    <glyph glyph-name="saoyisao" unicode="&#60154;" d="M213.333333 469.333333V682.666667h213.333334v-85.333334H298.666667v-128H213.333333z m0-170.666666h85.333334v-128h128v-85.333334H213.333333v213.333334z m597.333334 170.666666h-85.333334V597.333333h-128V682.666667h213.333334v-213.333334z m0-170.666666v-213.333334h-213.333334v85.333334h128v128h85.333334z m0 128v-85.333334H213.333333v85.333334h597.333334z"  horiz-adv-x="1024" />

    
    <glyph glyph-name="quanjushezhi" unicode="&#60155;" d="M661.333333 230.4l51.2-12.8 42.666667 72.533333-34.133333 38.4c4.266667 21.333333 4.266667 38.4 4.266666 55.466667s0 34.133333-4.266666 51.2l34.133333 38.4-42.666667 72.533333-51.2-12.8c-25.6 21.333333-55.466667 42.666667-89.6 51.2L554.666667 640h-85.333334l-17.066666-51.2c-34.133333-8.533333-64-25.6-89.6-51.2l-51.2 12.8-42.666667-72.533333 34.133333-38.4c-4.266667-21.333333-4.266667-38.4-4.266666-55.466667s0-34.133333 4.266666-51.2l-34.133333-38.4 42.666667-72.533333 51.2 12.8c25.6-21.333333 55.466667-42.666667 89.6-51.2L469.333333 128h85.333334l17.066666 51.2c34.133333 8.533333 64 25.6 89.6 51.2z m38.4-81.066667c-21.333333-17.066667-51.2-34.133333-76.8-42.666666L597.333333 42.666667h-170.666666l-25.6 64c-29.866667 12.8-55.466667 25.6-76.8 42.666666l-68.266667-12.8-85.333333 149.333334 42.666666 51.2V384c0 17.066667 0 29.866667 4.266667 42.666667l-42.666667 51.2 85.333334 149.333333 68.266666-12.8c21.333333 17.066667 51.2 34.133333 76.8 42.666667L426.666667 725.333333h170.666666l25.6-64c29.866667-12.8 55.466667-25.6 76.8-42.666666l68.266667 12.8 85.333333-149.333334-42.666666-51.2c4.266667-12.8 4.266667-29.866667 4.266666-42.666666s0-29.866667-4.266666-42.666667l42.666666-51.2-85.333333-149.333333-68.266667 4.266666zM512 341.333333c25.6 0 42.666667 17.066667 42.666667 42.666667s-17.066667 42.666667-42.666667 42.666667-42.666667-17.066667-42.666667-42.666667 17.066667-42.666667 42.666667-42.666667z m0-85.333333c-72.533333 0-128 55.466667-128 128s55.466667 128 128 128 128-55.466667 128-128-55.466667-128-128-128z"  horiz-adv-x="1024" />

    
    <glyph glyph-name="shitujuzhen" unicode="&#60156;" d="M213.333333 469.333333h170.666667v-170.666666H213.333333v170.666666z m0 213.333334h170.666667v-170.666667H213.333333V682.666667z m213.333334 0h170.666666v-170.666667h-170.666666V682.666667z m0-213.333334h170.666666v-170.666666h-170.666666v170.666666z m213.333333 213.333334h170.666667v-170.666667h-170.666667V682.666667z m0-213.333334h170.666667v-170.666666h-170.666667v170.666666z m0-213.333333h170.666667v-170.666667h-170.666667v170.666667z m-213.333333 0h170.666666v-170.666667h-170.666666v170.666667z m-213.333334 0h170.666667v-170.666667H213.333333v170.666667z"  horiz-adv-x="1024" />

    
    <glyph glyph-name="icon-test2" unicode="&#58922;" d="M762.072767 633.6964350000001h197.950754v-15.053289H762.072767zM785.781698 354.834252h174.241823v-15.053289H785.781698zM811.748622 75.97206900000003h148.274899v-15.053289H811.748622zM781.642043-45.959573999999975h-725.568541v7.526645c0 143.38258 82.793091 274.722528 211.498714 334.935685 8.655641 4.139655 14.300625 12.418964 15.429622 21.82727 1.128997 10.16097-3.38699 19.569276-11.6663 25.590591-66.987137 48.546858-106.878354 127.200294-106.878353 210.74605 0 71.503124 29.353914 140.371922 80.911429 188.91878 51.181183 48.546858 117.791988 73.008453 188.166116 69.621462 132.468945-7.150312 238.594634-118.16832 241.22896-253.271591 1.505329-85.427416-38.385888-165.962514-106.502021-216.014701-8.279309-6.021316-12.418964-15.805954-11.6663-25.966924 0.752664-9.784638 6.77398-18.440279 15.429622-22.579933 127.576626-59.836825 209.993385-191.176773 209.993385-334.183021v-7.150313z m-710.515251 15.05329H766.588754c-3.010658 134.350606-81.287762 256.658581-201.337743 313.108416-13.54796 6.77398-22.579934 19.945608-24.085263 34.998897-1.505329 15.429621 5.268651 30.106578 17.687615 39.138552 64.352811 47.041529 101.986035 123.060639 100.480705 203.219405-2.634326 127.200294-102.362367 231.820654-226.928335 238.218302-66.234473 3.38699-129.081955-19.569276-177.252481-65.481808-49.299522-46.665197-76.019111-109.889011-76.01911-178.005146 0-78.653436 37.633223-152.790886 100.857038-198.703417 12.418964-9.031974 19.192944-23.708931 17.687615-39.138552-1.505329-15.053289-10.537302-27.848585-24.085263-33.869901-120.802646-56.449835-199.456082-178.75781-202.46674-313.484748z"  horiz-adv-x="1024" />

    
    <glyph glyph-name="icon-test3" unicode="&#58923;" d="M512.188166 362.73722899999996c-124.565968 0-225.799338 101.23337-225.799338 225.799338s101.23337 225.799338 225.799338 225.799339 225.799338-101.23337 225.799339-225.799339-101.23337-225.799338-225.799339-225.799338z m0 436.545388c-116.286659 0-210.746049-94.45939-210.746049-210.74605s94.45939-210.746049 210.746049-210.746049 210.746049 94.45939 210.746049 210.746049-94.45939 210.746049-210.746049 210.74605zM897.55237-47.088570000000004h-770.728408v7.526644c0 212.62771 172.736494 385.364204 385.364204 385.364205S897.55237 173.065785 897.55237-39.56192599999997v-7.526644z m-755.675119 15.053289H882.499081C878.359427 168.549798 713.902242 330.74898900000005 512.188166 330.74898900000005c-201.714076 0-366.171261-162.199191-370.310915-362.78427z"  horiz-adv-x="1024" />

    
    <glyph glyph-name="icon-test4" unicode="&#58927;" d="M925.024623-89.23778000000004h-750.406468V814.712238H925.024623v-903.950018z m-735.353179 15.053289H909.971334V799.658949h-720.29989v-873.84344zM93.706725 442.14333h176.499817v-15.05329h-176.499817zM93.706725 585.5259100000001h176.499817v-15.05329h-176.499817zM93.706725 154.62550499999998h176.499817v-15.053289h-176.499817zM93.706725 298.384417h176.499817v-15.053289h-176.499817zM624.335171 73.71407599999998c-41.020213 0-92.201397 13.924293-144.887909 63.600147-8.655641 7.902977-209.24072 194.187431-197.198089 397.030503 2.634326 44.407203 29.730246 83.545755 69.621463 99.728041 11.666299 4.892319 25.214259 3.763322 40.643881-2.634325 45.912532-19.569276 94.835722-83.922087 114.028666-132.092613 7.526645-17.311283 4.139655-38.009555-9.031974-53.439177-1.881661-2.257993-4.139655-5.268651-6.397648-8.279309-13.924293-19.945608-12.418964-47.417861 3.38699-66.234473l72.255789-87.68541c26.343256-38.76222 57.955164-29.353914 87.685409-16.558618 3.38699 1.505329 6.021316 2.634326 8.655642 3.763323 21.074605 7.902977 53.062845-31.235575 68.116133-62.471151 23.332598-48.546858 16.93495-89.943403-17.687614-110.641676-3.010658-2.257993-38.385888-24.085263-89.190739-24.085262z m-256.658582 548.692392c-3.763322 0-7.150312-0.752664-10.16097-1.881661-34.622565-13.924293-58.331496-48.170526-60.589489-86.932745-11.666299-195.316428 190.424109-383.106211 192.682102-384.987872 112.147005-105.749357 214.885704-39.138552 215.638369-38.385888l0.376332 0.376332c39.138552 23.332598 21.450937 71.503124 12.042631 91.0724-17.311283 35.751562-43.278207 56.826167-49.299522 54.944506-2.257993-0.752664-4.892319-1.881661-7.902977-3.38699-22.956266-9.784638-70.374127-30.482911-106.125689 21.450937l-71.503124 86.932745c-19.945608 24.085263-21.827269 58.707828-4.139654 84.29842 2.257993 3.38699 4.892319 6.77398 7.150312 9.784638 9.408306 11.289967 12.042631 25.590592 6.77398 38.009555-20.32194 51.557516-68.868798 108.00735-106.125689 124.189636-6.77398 3.010658-13.171628 4.515987-18.816612 4.515987z"  horiz-adv-x="1024" />

    
    <glyph glyph-name="tongxun_fuzhi" unicode="&#58886;" d="M281.6 171.008H174.08c-34.816 0-64.512 28.672-64.512 64.512v215.04c0 34.816 28.672 64.512 64.512 64.512h107.52c34.816 0 64.512-28.672 64.512-64.512v-216.064c0-34.816-28.672-63.488-64.512-63.488zM174.08 494.592c-23.552 0-44.032-19.456-44.032-44.032v-216.064c0-23.552 19.456-44.032 44.032-44.032h107.52c23.552 0 44.032 19.456 44.032 44.032V450.56c0 23.552-19.456 44.032-44.032 44.032H174.08zM600.064 47.104c-4.096 0-8.192 1.024-11.264 3.072L337.92 183.296c-8.192 4.096-12.288 12.288-12.288 21.504V480.256c0 9.216 5.12 17.408 12.288 21.504l250.88 134.144c7.168 4.096 16.384 4.096 23.552-1.024 7.168-4.096 11.264-12.288 11.264-20.48v-543.744c0-8.192-4.096-16.384-11.264-20.48-3.072-2.048-8.192-3.072-12.288-3.072z m-1.024 20.48c2.048-1.024 3.072 0 3.072 0 1.024 0 2.048 1.024 2.048 3.072V614.4c0 2.048-1.024 3.072-2.048 3.072s-2.048 1.024-3.072 0L348.16 484.352c-1.024-1.024-2.048-2.048-2.048-3.072v-275.456c0-1.024 1.024-3.072 2.048-3.072l250.88-135.168zM866.304 346.112H703.488c-6.144 0-10.24 4.096-10.24 10.24s4.096 10.24 10.24 10.24h162.816c6.144 0 10.24-4.096 10.24-10.24s-4.096-10.24-10.24-10.24zM840.704 102.4c-1.024 0-3.072 0-4.096 1.024l-137.216 67.584c-5.12 2.048-7.168 8.192-5.12 13.312 2.048 5.12 8.192 7.168 13.312 5.12l137.216-67.584c5.12-2.048 7.168-8.192 5.12-13.312-2.048-4.096-5.12-6.144-9.216-6.144zM703.488 505.856c-4.096 0-7.168 2.048-9.216 5.12-3.072 5.12-1.024 11.264 4.096 14.336l137.216 76.8c5.12 3.072 11.264 1.024 14.336-4.096 3.072-5.12 1.024-11.264-4.096-14.336L708.608 506.88c-2.048-1.024-4.096-1.024-5.12-1.024z"  horiz-adv-x="1024" />

    
    <glyph glyph-name="tongxun_svg" unicode="&#58887;" d="M527.36 107.52c-107.52 0-194.56 87.04-194.56 193.536V575.488c0 106.496 87.04 193.536 193.536 193.536s193.536-87.04 193.536-193.536v-274.432C720.896 194.56 633.856 107.52 527.36 107.52z m0 642.048c-95.232 0-173.056-77.824-173.056-173.056V302.08c0-95.232 77.824-173.056 173.056-173.056S700.416 206.848 700.416 302.08V575.488c0 96.256-77.824 174.08-173.056 174.08zM518.144 368.64c-38.912 0-71.68 31.744-71.68 71.68s31.744 71.68 71.68 71.68 71.68-31.744 71.68-71.68-31.744-71.68-71.68-71.68z m0 122.88c-27.648 0-51.2-22.528-51.2-51.2 0-27.648 22.528-51.2 51.2-51.2s51.2 22.528 51.2 51.2c0 27.648-22.528 51.2-51.2 51.2zM623.616-69.632H430.08l52.224 90.112c-124.928 21.504-218.112 130.048-218.112 259.072v82.944c0 6.144 4.096 10.24 10.24 10.24s10.24-4.096 10.24-10.24v-82.944c0-123.904 92.16-227.328 215.04-240.64l15.36-2.048-49.152-86.016h122.88L538.624 35.84l15.36 2.048c122.88 14.336 215.04 117.76 215.04 240.64v82.944c0 6.144 4.096 10.24 10.24 10.24s10.24-4.096 10.24-10.24v-82.944c0-129.024-92.16-237.568-218.112-259.072l52.224-89.088z"  horiz-adv-x="1024" />

    
    <glyph glyph-name="jiaoliu2" unicode="&#58888;" d="M950.82666667 10.34666666999999H68.58666667C43.73333333 10.34666666999999 23.46666667 30.613333330000046 23.46666667 55.466666669999995s20.26666667 45.12 45.12 45.12h882.24c24.85333333 0 45.12-20.26666667 45.12-45.12s-20.26666667-45.12-45.12-45.12z m-882.24 76.8c-17.38666667 0-31.57333333-14.18666667-31.57333334-31.57333334s14.18666667-31.57333333 31.57333334-31.57333333h882.24c17.38666667 0 31.57333333 14.18666667 31.57333333 31.57333333s-14.18666667 31.57333333-31.57333333 31.57333334H68.58666667zM630.50666667 435.41333333H263.04c-24 0-43.62666667 19.52-43.62666667 43.62666667v44.37333333l-98.77333333 124.48c-1.92 2.45333333-1.92 5.97333333 0 8.42666667 1.92 2.45333333 5.33333333 3.2 8.21333333 1.81333333l90.56-43.84v40.42666667c0 24 19.52 43.62666667 43.62666667 43.62666667h367.46666667c24 0 43.62666667-19.52 43.62666666-43.62666667v-175.68c0-24-19.52-43.62666667-43.62666666-43.62666667zM149.65333333 633.06666667l81.81333334-103.14666667c0.96-1.17333333 1.49333333-2.66666667 1.49333333-4.16v-46.72c0-16.53333333 13.44-30.08 30.08-30.08h367.46666667c16.53333333 0 30.08 13.44 30.08 30.08V654.72c0 16.53333333-13.44 30.08-30.08 30.08H263.04c-16.53333333 0-30.08-13.44-30.08-30.08v-51.2c0-2.34666667-1.17333333-4.48-3.2-5.76-1.92-1.28-4.48-1.38666667-6.50666667-0.32l-73.6 35.62666667zM764.58666667 136.64H457.70666667c-24.85333333 0-45.12 20.26666667-45.12 45.12V354.34666667c0 24.85333333 20.26666667 45.12 45.12 45.12h306.88c24.85333333 0 45.12-20.26666667 45.12-45.12v-11.52l80.85333333 36.26666666c2.88 1.28 6.18666667 0.42666667 8.10666667-2.02666666 1.92-2.45333333 1.92-5.97333333-0.10666667-8.32L809.6 257.28v-75.52c0.10666667-24.85333333-20.16-45.12-45.01333333-45.12zM457.70666667 385.92c-17.38666667 0-31.57333333-14.18666667-31.57333334-31.57333333v-172.58666667c0-17.38666667 14.18666667-31.57333333 31.57333334-31.57333333h306.88c17.38666667 0 31.57333333 14.18666667 31.57333333 31.57333333v77.86666667c0 1.49333333 0.53333333 2.98666667 1.49333333 4.26666666l72.96 91.52-64.96-29.12c-2.13333333-0.96-4.48-0.74666667-6.4 0.53333334s-3.09333333 3.41333333-3.09333333 5.65333333v21.97333333c0 17.38666667-14.18666667 31.57333333-31.57333333 31.57333334H457.70666667zM278.50666667 570.88m-8.21333334 0a8.21333333 8.21333333 0 1 1 16.42666667 0 8.21333333 8.21333333 0 1 1-16.42666667 0ZM278.50666667 572.26666667c0.85333333 0 1.49333333-0.64 1.49333333-1.49333334 0-0.85333333-0.64-1.49333333-1.49333333-1.49333333-0.85333333 0-1.49333333 0.64-1.49333334 1.49333333 0 0.85333333 0.64 1.49333333 1.49333334 1.49333334m0 13.54666666c-8.32 0-15.04-6.72-15.04-15.04s6.72-15.04 15.04-15.04 15.04 6.72 15.04 15.04-6.82666667 15.04-15.04 15.04zM354.66666667 493.44c-1.70666667 0-3.41333333 0.64-4.8 2.02666667-2.66666667 2.66666667-2.66666667 6.93333333 0 9.6 36.37333333 36.37333333 36.37333333 95.46666667 0 131.73333333-2.66666667 2.66666667-2.66666667 6.93333333 0 9.6s6.93333333 2.66666667 9.6 0c41.6-41.6 41.6-109.33333333 0-150.93333333-1.28-1.38666667-3.09333333-2.02666667-4.8-2.02666667zM331.09333333 517.01333333c-1.70666667 0-3.41333333 0.64-4.8 2.02666667-2.66666667 2.66666667-2.66666667 6.93333333 0 9.6 23.36 23.36 23.36 61.33333333 0 84.69333333-2.66666667 2.66666667-2.66666667 6.93333333 0 9.6s6.93333333 2.66666667 9.6 0c28.58666667-28.58666667 28.58666667-75.2 0-103.78666666-1.28-1.49333333-3.09333333-2.13333333-4.8-2.13333334zM307.52 540.58666667c-1.70666667 0-3.41333333 0.64-4.8 2.02666666-2.66666667 2.66666667-2.66666667 6.93333333 0 9.6 10.34666667 10.34666667 10.34666667 27.2 0 37.54666667-2.66666667 2.66666667-2.66666667 6.93333333 0 9.6s6.93333333 2.66666667 9.6 0c15.68-15.68 15.57333333-41.06666667 0-56.64-1.28-1.49333333-2.98666667-2.13333333-4.8-2.13333333zM761.81333333 268.05333333m-8.21333333 0a8.21333333 8.21333333 0 1 1 16.42666667 0 8.21333333 8.21333333 0 1 1-16.42666667 0ZM761.81333333 269.54666667000004c0.85333333 0 1.49333333-0.64 1.49333334-1.49333334s-0.64-1.49333333-1.49333334-1.49333333-1.49333333 0.64-1.49333333 1.49333333 0.74666667 1.49333333 1.49333333 1.49333334m0 13.44c-8.32 0-15.04-6.72-15.04-15.04s6.72-15.04 15.04-15.04 15.04 6.72 15.04 15.04c0 8.42666667-6.72 15.04-15.04 15.04zM685.65333333 190.61333333000005c-1.70666667 0-3.41333333 0.64-4.8 2.02666667-41.6 41.6-41.6 109.33333333 0 150.93333333 2.66666667 2.66666667 6.93333333 2.66666667 9.6 0s2.66666667-6.93333333 0-9.6c-36.37333333-36.37333333-36.37333333-95.46666667 0-131.73333333 2.66666667-2.66666667 2.66666667-6.93333333 0-9.6-1.38666667-1.38666667-3.09333333-2.02666667-4.8-2.02666667zM709.22666667 214.18666667000002c-1.70666667 0-3.41333333 0.64-4.8 2.02666666-28.58666667 28.58666667-28.58666667 75.2 0 103.78666667 2.66666667 2.66666667 6.93333333 2.66666667 9.6 0s2.66666667-6.93333333 0-9.6c-23.36-23.36-23.36-61.33333333 0-84.69333333 2.66666667-2.66666667 2.66666667-6.93333333 0-9.6-1.38666667-1.28-3.09333333-1.92-4.8-1.92zM732.8 237.76c-1.70666667 0-3.41333333 0.64-4.8 2.02666667-15.68 15.68-15.57333333 41.06666667 0 56.64 2.66666667 2.66666667 6.93333333 2.66666667 9.6 0s2.66666667-6.93333333 0-9.6c-10.34666667-10.34666667-10.34666667-27.2 0-37.54666667 2.66666667-2.66666667 2.66666667-6.93333333 0-9.6-1.38666667-1.28-3.09333333-1.92-4.8-1.92z"  horiz-adv-x="1024" />

    
    <glyph glyph-name="shijuan1" unicode="&#58954;" d="M864 800H256c-35.346 0-64-28.654-64-64v-640H96v-64c0-35.347 28.654-64 64-64h608c35.346 0 64 28.653 64 64V672h96v64c0 35.346-28.654 64-64 64zM160 0c-17.673 0-32 14.327-32 32v32h544v-32a63.692 63.692 0 0 1 8.583-32H160z m640 736v-704c0-17.673-14.327-32-32-32h-32c-17.673 0-32 14.327-32 32v64H224V736c0 17.673 14.327 32 32 32h552.584A63.682 63.682 0 0 1 800 736z m96-32h-64v32c0 17.673 14.327 32 32 32s32-14.327 32-32v-32z m-560-96h160c8.836 0 16 7.164 16 16s-7.164 16-16 16H336c-8.836 0-16-7.164-16-16s7.164-16 16-16z m0-128h352c8.837 0 16 7.164 16 16s-7.163 16-16 16H336c-8.836 0-16-7.164-16-16s7.164-16 16-16z m0-128h224c8.837 0 16 7.163 16 16s-7.163 16-16 16H336c-8.836 0-16-7.163-16-16s7.164-16 16-16z m0-128h352c8.837 0 16 7.163 16 16s-7.163 16-16 16H336c-8.836 0-16-7.163-16-16s7.164-16 16-16z"  horiz-adv-x="1024" />

    
    <glyph glyph-name="shijuan-tianchong" unicode="&#58972;" d="M864 800H256c-35.346 0-64-28.654-64-64v-640H96v-64c0-35.347 28.654-64 64-64h608c35.346 0 64 28.653 64 64V672h96v64c0 35.346-28.654 64-64 64zM336 640h160c8.836 0 16-7.164 16-16s-7.164-16-16-16H336c-8.836 0-16 7.164-16 16s7.164 16 16 16zM160 0c-17.673 0-32 14.327-32 32v32h544v-32a63.681 63.681 0 0 1 8.583-32H160z m528 224H336c-8.836 0-16 7.163-16 16s7.164 16 16 16h352c8.837 0 16-7.163 16-16s-7.163-16-16-16zM320 368c0 8.837 7.164 16 16 16h224c8.837 0 16-7.163 16-16s-7.163-16-16-16H336c-8.836 0-16 7.163-16 16z m368 112H336c-8.836 0-16 7.164-16 16s7.164 16 16 16h352c8.837 0 16-7.164 16-16s-7.163-16-16-16z m208 224h-64v32c0 17.673 14.327 32 32 32s32-14.327 32-32v-32z"  horiz-adv-x="1024" />

    
    <glyph glyph-name="shuipingzice" unicode="&#58898;" d="M900.304 675.616h-145.312V783.44A32 32 0 0 1 723.248 816H63.728a32 32 0 0 1-31.744-32.56v-677.312A152.352 152.352 0 0 1 182.224-48h628.48a292.8 292.8 0 0 1 29.616 0.72V-48h1.408a152.352 152.352 0 0 1 150.24 154.128V581.552a92.8 92.8 0 0 1-91.664 94.064z m27.504-93.344v-475.424a86.784 86.784 0 1 0-173.52 0V609.776h145.312a27.024 27.024 0 0 0 28.208-27.504zM94.784 751.6h596.032v-644.016a159.344 159.344 0 0 1 27.504-89.008H181.536a87.84 87.84 0 0 0-86.752 89.008zM187.152 528.304h39.152v-39.152a33.248 33.248 0 1 1 66.496 0v39.152h39.168a33.248 33.248 0 0 1 0 66.496H292.8v39.152a33.248 33.248 0 1 1-66.496 0v-39.152h-39.152a33.248 33.248 0 1 1 0-66.496zM441.2 603.584H614.08a33.248 33.248 0 0 1 0 66.496H441.2a33.248 33.248 0 0 1 0-66.496zM441.2 438.88H614.08a33.248 33.248 0 0 1 0 66.496H441.2a33.104 33.104 0 0 1-33.248-33.248 32.656 32.656 0 0 1 33.248-33.248zM441.2 273.456H614.08a33.248 33.248 0 0 1 0 66.496H441.2a33.104 33.104 0 0 1-33.248-33.248 32.656 32.656 0 0 1 33.248-33.248zM168.672 273.456h189.872a33.248 33.248 0 0 1 0 66.496H168.672a33.104 33.104 0 0 1-33.248-33.248 32.656 32.656 0 0 1 33.248-33.248zM441.2 108.032H614.08a33.248 33.248 0 0 1 0 66.496H441.2a33.104 33.104 0 0 1-33.248-33.248 32.656 32.656 0 0 1 33.248-33.248zM168.672 108.032h189.872a33.248 33.248 0 0 1 0 66.496H168.672a33.104 33.104 0 0 1-33.248-33.248 32.656 32.656 0 0 1 33.248-33.248z"  horiz-adv-x="1024" />

    
    <glyph glyph-name="jingyanjiaoliu" unicode="&#58881;" d="M0 87.578947V857.519158h1077.894737V87.578947H514.155789L215.578947-128v215.578947H0z m198.871579 200.380632h483.705263V358.292211H198.817684v-70.332632z m0 147.294316h680.097684V505.532632H198.817684v-70.278737z m0 146.970947h680.097684V652.557474H198.817684v-70.332632z"  horiz-adv-x="1077" />

    
    </font>
</defs>
</svg>
